<svg width="48" height="48" viewBox="0 0 48 48" fill="none" xmlns="http://www.w3.org/2000/svg">
<g clip-path="url(#clip0_173_35)">
<path d="M40.8 0H7.2C3.22355 0 0 3.22355 0 7.2V40.8C0 44.7765 3.22355 48 7.2 48H40.8C44.7765 48 48 44.7765 48 40.8V7.2C48 3.22355 44.7765 0 40.8 0Z" fill="#222222"/>
<g clip-path="url(#clip1_173_35)">
<rect width="29.76" height="34.08" transform="translate(9.12 6.71997)" fill="#222222"/>
<path fill-rule="evenodd" clip-rule="evenodd" d="M26.6208 34.2336L26.6736 34.2264L26.7264 34.2187L26.771 34.2149H27.2208L27.2736 34.2187L27.3259 34.2264L27.3787 34.2302H27.431L27.4834 34.2336L27.5362 34.2413L27.589 34.2451H27.6408L27.6936 34.2485L27.7459 34.2561L27.7987 34.2638L27.851 34.271L27.9034 34.2787L27.9562 34.2864L28.009 34.2936L28.0608 34.3013L28.1136 34.3085L28.1659 34.3161L28.2187 34.3238L28.271 34.3315L28.3234 34.3425L28.3762 34.3574L28.429 34.3685L28.4808 34.3761L28.5336 34.3838L28.5859 34.391L28.6387 34.4064L28.691 34.4289L28.7434 34.4438L28.7962 34.4515L28.849 34.4625L28.9008 34.4779L28.9536 34.4923L29.0059 34.5077L29.0587 34.5225L29.111 34.5379L29.1634 34.5523L29.2162 34.5677L29.269 34.5825L29.3208 34.5974L29.3736 34.6128L29.4259 34.6272L29.4787 34.6464L29.531 34.6685L29.5834 34.6877L29.6362 34.7025L29.689 34.7179L29.7408 34.7323L29.7936 34.7515L29.8459 34.7736L29.8987 34.7928L29.951 34.8072L30.0034 34.8264L30.0562 34.8485L30.109 34.8749L30.1608 34.9051L30.2136 34.9277L30.2659 34.9421L30.3187 34.9613L30.371 34.9838L30.4234 35.0064L30.4762 35.0285L30.529 35.0549L30.5808 35.0851L30.6336 35.1115L30.6859 35.1336L30.7387 35.1561L30.791 35.1787L30.8434 35.2013L30.8962 35.2238L30.949 35.2502L31.0008 35.28L31.0536 35.3064L31.1059 35.3285L31.1587 35.3549L31.211 35.3851L31.2634 35.4149L31.3162 35.4451L31.3685 35.4749L31.4213 35.5051L31.4702 35.5459L31.5154 35.5987L31.549 35.651L31.571 35.7033L31.5902 35.7561L31.6051 35.8085L31.6123 35.8613V35.9136L31.6046 35.9659L31.5902 36.0187L31.571 36.071L31.549 36.1233L31.511 36.1761L31.4592 36.2285L31.4064 36.2702L31.3541 36.3L31.3013 36.3225L31.249 36.3374L31.1966 36.3451H31.1438L31.091 36.3413L31.0392 36.3336L30.9864 36.3187L30.9341 36.2961L30.8813 36.2736L30.829 36.251L30.7766 36.2285L30.7238 36.2064L30.671 36.18L30.6192 36.1502L30.5664 36.1238L30.5141 36.1013L30.4613 36.0787L30.409 36.0561L30.3566 36.0336L30.3038 36.0115L30.251 35.9851L30.1992 35.9549L30.1464 35.9285L30.0941 35.9064L30.0413 35.8838L29.989 35.8613L29.9366 35.8387L29.8838 35.8161L29.831 35.7936L29.7792 35.7715L29.7264 35.7523L29.6741 35.7379L29.6213 35.7187L29.569 35.6966L29.5166 35.6774L29.4638 35.6625L29.411 35.6472L29.3592 35.6328L29.3064 35.6136L29.2541 35.5915L29.2013 35.5723L29.149 35.5579L29.0966 35.5387L29.0438 35.5166L28.991 35.4974L28.9392 35.4825L28.8864 35.4672L28.8341 35.4528L28.7813 35.4336L28.729 35.411L28.6766 35.3961L28.6238 35.3885L28.571 35.3774L28.5192 35.3621L28.4664 35.3477L28.4141 35.3323L28.3613 35.3213L28.309 35.3136L28.2566 35.3021L28.2038 35.2877L28.151 35.2761L28.0992 35.2689L28.0464 35.2613L27.9941 35.2536L27.9413 35.2464L27.889 35.2387L27.8366 35.2315L27.7838 35.2238L27.731 35.2161L27.6792 35.2089L27.6264 35.2051H27.5741L27.5213 35.2013L27.469 35.1936L27.4166 35.1864L27.3638 35.1787L27.311 35.1749H27.2592L27.2064 35.1715L27.1541 35.1638L27.1013 35.16H27.049L26.9966 35.1638L26.9438 35.171L26.891 35.1749H26.7341L26.6813 35.1787L26.629 35.1864L26.5766 35.1936L26.5238 35.2013L26.471 35.2051H26.4192L26.3664 35.2085L26.3141 35.2161L26.2613 35.2277L26.209 35.2425L26.1566 35.2536L26.1038 35.2613L26.051 35.2685L25.9992 35.2761L25.9464 35.2877L25.8941 35.3025L25.8413 35.3136L25.789 35.3213L25.7366 35.3323L25.6838 35.3477L25.631 35.3625L25.5792 35.3779L25.5264 35.3923L25.4741 35.4077L25.4213 35.4225L25.369 35.4374L25.3166 35.4561L25.2638 35.4787L25.211 35.4979L25.1592 35.5123L25.1064 35.5277L25.0541 35.5425L25.0013 35.5579L24.949 35.5723L24.8966 35.5915L24.8438 35.6136L24.791 35.6323L24.7392 35.6477L24.6864 35.6625L24.6341 35.6774L24.5813 35.6961L24.529 35.7187L24.4766 35.7379L24.4238 35.7523L24.371 35.7715L24.3192 35.7941L24.2664 35.8085L24.2141 35.8161L24.1613 35.8315L24.109 35.8536L24.0566 35.8761L24.0038 35.8987L23.951 35.9179L23.8992 35.9323L23.8464 35.9515L23.7941 35.9736L23.7413 35.9928L23.689 36.0072L23.6366 36.0264L23.5838 36.0485L23.531 36.0677L23.4792 36.0825L23.4264 36.0979L23.3741 36.1123L23.3213 36.1315L23.269 36.1536L23.2166 36.1761L23.1638 36.1987L23.111 36.2179L23.0592 36.2323L23.0064 36.2515L22.9541 36.2736L22.9013 36.2961L22.849 36.3187L22.7966 36.3413L22.7438 36.3638L22.691 36.3864L22.6392 36.4089L22.5864 36.4315L22.5341 36.4536L22.4813 36.4761L22.429 36.4987L22.3766 36.5179L22.3238 36.5323L22.271 36.5515L22.2192 36.5736L22.1664 36.5961L22.1141 36.6187L22.0613 36.6413L22.009 36.6638L21.9566 36.6864L21.9038 36.7089L21.851 36.7315L21.7992 36.7536L21.7464 36.7761L21.6941 36.7987L21.6413 36.8213L21.589 36.8438L21.5366 36.8664L21.4838 36.8889L21.431 36.9115L21.3792 36.9336L21.3264 36.96L21.2741 36.9902L21.2213 37.0128L21.169 37.0272L21.1166 37.0464L21.0638 37.0689L21.011 37.0915L20.9592 37.1136L20.9064 37.14L20.8541 37.1697L20.8013 37.1961L20.749 37.2187L20.6966 37.2413L20.6438 37.2638L20.591 37.2902L20.5392 37.32L20.4864 37.3502L20.4341 37.38L20.3813 37.4064L20.329 37.4289L20.2766 37.4515L20.2238 37.4736L20.171 37.5L20.1192 37.5302L20.0664 37.56L20.0141 37.5897L19.9613 37.6161L19.909 37.6387L19.8566 37.6651L19.8038 37.6949L19.751 37.7213L19.6992 37.7438L19.6464 37.7664L19.5941 37.7885L19.5413 37.8149L19.489 37.8451L19.4366 37.8749L19.3838 37.9051L19.331 37.9315L19.2792 37.9536L19.2264 37.98L19.1741 38.0102L19.1213 38.04L19.069 38.0702L19.0166 38.1L18.9638 38.1297L18.911 38.1561L18.8592 38.1787L18.8064 38.2051L18.7541 38.2349L18.7013 38.2651L18.649 38.2949L18.5966 38.3285L18.5438 38.3664L18.491 38.4L18.4392 38.4297L18.3864 38.4561L18.3341 38.4787L18.2813 38.5051L18.229 38.5349L18.1766 38.5651L18.1238 38.5949L18.071 38.6251L18.0192 38.6549L17.9664 38.6885L17.9141 38.7264L17.8613 38.7561L17.809 38.7787L17.7566 38.8051L17.7038 38.8349L17.651 38.8685L17.5992 38.9064L17.5464 38.94L17.4941 38.9702L17.4413 39L17.389 39.0302L17.3366 39.06L17.2838 39.0902L17.231 39.12L17.1792 39.1502L17.1264 39.1838L17.0741 39.2213L17.0213 39.2587L16.969 39.2966L16.9166 39.3302L16.8638 39.36L16.811 39.3936L16.7592 39.431L16.7064 39.4685L16.6541 39.5064L16.6013 39.54L16.549 39.5702L16.4966 39.6038L16.4438 39.6413L16.391 39.6787L16.3392 39.7166L16.2864 39.7502L16.2341 39.78L16.1813 39.8136L16.129 39.851L16.0766 39.8885L16.0238 39.9264L15.971 39.9638L15.9192 40.0013L15.8664 40.0349L15.8141 40.0651L15.7613 40.0987L15.709 40.1361L15.6566 40.1736L15.6038 40.2115L15.551 40.2451L15.4992 40.2749L15.4464 40.3051L15.3941 40.3349L15.3413 40.3536L15.289 40.3613L15.2366 40.3651H15.1838L15.131 40.3613L15.0792 40.3541L15.0264 40.3349L14.9741 40.3051L14.9213 40.2677L14.869 40.2221L14.831 40.1741L14.809 40.1213L14.7864 40.0689L14.7638 40.0166L14.7523 39.9638V39.8064L14.7638 39.7541L14.7864 39.7013L14.82 39.6489L14.8651 39.5961L14.9136 39.5477L14.9659 39.5025L15.0187 39.4651L15.071 39.4349L15.1234 39.4013L15.1762 39.3638L15.229 39.3264L15.2808 39.2889L15.3336 39.2515L15.3859 39.2136L15.4387 39.1761L15.491 39.1387L15.5434 39.1051L15.5962 39.0749L15.649 39.0413L15.7008 39.0038L15.7536 38.9625L15.8059 38.9174L15.8587 38.88L15.911 38.8497L15.9634 38.8161L16.0162 38.7787L16.069 38.7451L16.1208 38.7149L16.1736 38.6813L16.2259 38.6438L16.2787 38.6064L16.331 38.5685L16.3834 38.5349L16.4362 38.5051L16.489 38.4715L16.5408 38.4336L16.5936 38.4038L16.6459 38.3813L16.6987 38.3477L16.751 38.3025L16.8034 38.2651L16.8562 38.2349L16.909 38.2013L16.9608 38.1638L17.0136 38.1302L17.0659 38.1L17.1187 38.0702L17.171 38.04L17.2234 38.0102L17.2762 37.98L17.329 37.9502L17.3808 37.92L17.4336 37.8902L17.4859 37.86L17.5387 37.8302L17.591 37.8L17.6434 37.7702L17.6962 37.74L17.749 37.7102L17.8008 37.68L17.8536 37.6502L17.9059 37.62L17.9587 37.5902L18.011 37.56L18.0634 37.5302L18.1162 37.5L18.169 37.4702L18.2208 37.44L18.2736 37.4136L18.3259 37.3915L18.3787 37.3651L18.431 37.3349L18.4834 37.3051L18.5362 37.2749L18.589 37.2451L18.6408 37.2149L18.6936 37.1851L18.7459 37.1549L18.7987 37.1285L18.851 37.1064L18.9034 37.08L18.9562 37.0502L19.009 37.02L19.0608 36.9902L19.1136 36.9638L19.1659 36.9413L19.2187 36.9149L19.271 36.8851L19.3234 36.8587L19.3762 36.8361L19.429 36.8102L19.4808 36.78L19.5336 36.7502L19.5859 36.72L19.6387 36.6936L19.691 36.6715L19.7434 36.6451L19.7962 36.6149L19.849 36.5885L19.9008 36.5664L19.9536 36.5438L20.0059 36.5213L20.0587 36.4987L20.111 36.4761L20.1634 36.4502L20.2162 36.42L20.269 36.3936L20.3208 36.3715L20.3736 36.3451L20.4259 36.3149L20.4787 36.2885L20.531 36.2664L20.5834 36.2438L20.6362 36.2213L20.689 36.1987L20.7408 36.1761L20.7936 36.1536L20.8459 36.131L20.8987 36.1085L20.951 36.0864L21.0034 36.0638L21.0562 36.0413L21.109 36.0187L21.1608 35.9961L21.2136 35.9736L21.2659 35.9515L21.3187 35.9251L21.371 35.8949L21.4234 35.8685L21.4762 35.8464L21.529 35.8238L21.5808 35.8013L21.6336 35.7821L21.6859 35.7677L21.7387 35.7451L21.791 35.7149L21.8434 35.6923L21.8962 35.6779L21.949 35.6587L22.0008 35.6361L22.0536 35.6136L22.1059 35.5915L22.1587 35.5723L22.211 35.5579L22.2634 35.5387L22.3162 35.5161L22.369 35.4936L22.4208 35.471L22.4736 35.4485L22.5259 35.4264L22.5787 35.4038L22.631 35.3813L22.6834 35.3621L22.7362 35.3477L22.789 35.3285L22.8408 35.3064L22.8936 35.2838L22.9459 35.2613L22.9987 35.2421L23.051 35.2277L23.1034 35.2085L23.1562 35.1864L23.209 35.1672L23.2608 35.1528L23.3136 35.1336L23.3659 35.1115L23.4187 35.0923L23.471 35.0774L23.5234 35.0621L23.5762 35.0477L23.629 35.0285L23.6808 35.0064L23.7336 34.9872L23.7859 34.9728L23.8387 34.9536L23.891 34.931L23.9434 34.9085L23.9962 34.8864L24.049 34.8672L24.1008 34.8528L24.1536 34.8336L24.2059 34.811L24.2587 34.7885L24.311 34.7664L24.3634 34.7477L24.4162 34.7323L24.469 34.7174L24.5208 34.7025L24.5736 34.6872L24.6259 34.6728L24.6787 34.6536L24.731 34.631L24.7834 34.6161L24.8362 34.6089L24.889 34.5936L24.9408 34.571L24.9936 34.5561L25.0459 34.5485L25.0987 34.5374L25.151 34.5221L25.2034 34.5077L25.2562 34.4923L25.309 34.4774L25.3608 34.4625L25.4136 34.4472L25.4659 34.4328L25.5187 34.4136L25.571 34.391L25.6234 34.3761L25.6762 34.3685L25.729 34.3574L25.7808 34.3425L25.8336 34.3315L25.8859 34.3238L25.9387 34.3161L25.991 34.3089L26.0434 34.3013L26.0962 34.2936L26.149 34.2864L26.2008 34.2787L26.2536 34.2715L26.3059 34.2638L26.3587 34.2561L26.411 34.2489L26.4634 34.2451H26.5162L26.569 34.2413L26.6208 34.2336ZM37.0877 31.8561L37.1174 31.8489L37.1362 31.8451H37.3723L37.4026 31.8485L37.4323 31.8561L37.4626 31.8638L37.4923 31.8715L37.5226 31.8825L37.5523 31.8974L37.5826 31.9161L37.6123 31.9387L37.6387 31.9651L37.6613 31.9949L37.6838 32.0251L37.7059 32.0549L37.7251 32.0851L37.74 32.1149L37.751 32.1451L37.7587 32.1749L37.7664 32.2051L37.7736 32.2349L37.7774 32.2651V32.2949L37.7736 32.3251L37.7664 32.3549L37.7587 32.3851L37.751 32.4149L37.7438 32.4451L37.7362 32.4749L37.7251 32.5051L37.7098 32.5349L37.6949 32.5651L37.68 32.5949L37.6574 32.6213L37.6277 32.6438L37.5974 32.6664L37.5677 32.6885L37.5374 32.7077L37.5077 32.7225L37.4774 32.7336L37.4477 32.7413L37.4174 32.7485L37.3877 32.7561L37.3574 32.7638L37.3277 32.771L37.2974 32.7787L37.2677 32.7864L37.2374 32.7936L37.2077 32.8013L37.1774 32.8051H37.0877L37.0574 32.8085L37.0277 32.8161L36.9974 32.82H36.9677L36.9374 32.8238L36.9077 32.831L36.8774 32.8387L36.8477 32.8464L36.8174 32.8502H36.7877L36.7574 32.8536L36.7277 32.8613L36.6974 32.8651H36.6677L36.6374 32.8685L36.6077 32.8761L36.5774 32.88H36.5477L36.5174 32.8838L36.4877 32.891L36.4574 32.8987L36.4277 32.9064L36.3974 32.9102H36.3677L36.3374 32.9136L36.3077 32.9213L36.2774 32.9251H36.2477L36.2174 32.9285L36.1877 32.9361L36.1574 32.94H36.1277L36.0974 32.9438L36.0677 32.951L36.0374 32.9587L36.0077 32.9664L35.9774 32.9702H35.9477L35.9174 32.9736L35.8877 32.9813L35.8574 32.9851H35.8277L35.7974 32.9885L35.7677 32.9961L35.7374 33H35.7077L35.6774 33.0038L35.6477 33.011L35.6174 33.0187L35.5877 33.0264L35.5574 33.0336L35.5277 33.0413L35.4974 33.0451H35.4677L35.4374 33.0485L35.4077 33.0561L35.3774 33.06H35.3477L35.3174 33.0677L35.2877 33.0825L35.2574 33.0902H35.2277L35.1974 33.0936L35.1677 33.1013L35.1374 33.1051H35.1077L35.0774 33.1085L35.0477 33.1161L35.0174 33.1238L34.9877 33.131L34.9574 33.1387L34.9277 33.1464L34.8974 33.1536L34.8677 33.1613L34.8374 33.1651H34.8077L34.7774 33.1685L34.7477 33.1761L34.7174 33.18H34.6877L34.6574 33.1838L34.6277 33.191L34.5974 33.1987L34.5677 33.2064L34.5374 33.2136L34.5077 33.2213L34.4774 33.2251H34.4477L34.4174 33.2285L34.3877 33.2361L34.3574 33.2438L34.3277 33.251L34.2974 33.2587L34.2677 33.2664L34.2374 33.2702H34.2077L34.1774 33.2736L34.1477 33.2813L34.1174 33.2851H34.0877L34.0574 33.2885L34.0277 33.2961L33.9974 33.3038L33.9677 33.311L33.9374 33.3187L33.9077 33.3264L33.8774 33.3336L33.8477 33.3413L33.8174 33.3451H33.7877L33.7574 33.3485L33.7277 33.3561L33.6974 33.36H33.6677L33.6374 33.3638L33.6077 33.371L33.5774 33.3787L33.5477 33.3864L33.5174 33.3936L33.4877 33.4013L33.4574 33.4051H33.4277L33.3974 33.4085L33.3677 33.4161L33.3374 33.4238L33.3077 33.431L33.2774 33.4387L33.2477 33.4464L33.2174 33.4536L33.1877 33.4613L33.1574 33.4651H33.1277L33.0974 33.4685L33.0677 33.4761L33.0374 33.4838L33.0077 33.491L32.9774 33.4987L32.9477 33.5064L32.9174 33.5102H32.8877L32.8574 33.5136L32.8277 33.5213L32.7974 33.5285L32.7677 33.5361L32.7374 33.5477L32.7077 33.5625L32.6774 33.5736L32.6477 33.5813L32.6174 33.5851H32.5877L32.5574 33.5885L32.5277 33.5961L32.4974 33.6038L32.4677 33.611L32.4374 33.6187L32.4077 33.6264L32.3774 33.6336L32.3477 33.6413L32.3174 33.6451H32.2877L32.2574 33.6485L32.2277 33.6561L32.1974 33.6638L32.1677 33.671L32.1374 33.6787L32.1077 33.6864L32.0774 33.6936L32.0477 33.7013L32.0174 33.7051H31.9877L31.9574 33.7085L31.9277 33.7161L31.8974 33.7238L31.8677 33.731L31.8374 33.7387L31.8077 33.7464L31.7774 33.7536L31.7477 33.7613L31.7174 33.7651H31.6877L31.6574 33.7685L31.6277 33.7761L31.5974 33.78H31.5677L31.5374 33.7877L31.5077 33.8025L31.4774 33.8136L31.4477 33.8213L31.4174 33.8251H31.3877L31.3574 33.8285L31.3277 33.8361L31.2974 33.8438L31.2677 33.8515L31.2374 33.8625L31.2077 33.8774L31.1962 33.9L31.2034 33.9302L31.2226 33.9523L31.2523 33.9677L31.2826 33.9825L31.3123 33.9974L31.3426 34.0128L31.3723 34.0272L31.4026 34.0464L31.4323 34.0685L31.4626 34.0877L31.4923 34.1021L31.5226 34.1213L31.5523 34.1433L31.5826 34.1625L31.6123 34.1774L31.6426 34.1928L31.6723 34.2072L31.7026 34.2264L31.7323 34.2485L31.7626 34.2677L31.7923 34.2821L31.8226 34.3013L31.8523 34.3238L31.8826 34.3464L31.9123 34.3685L31.9426 34.3877L31.9723 34.4021L32.0026 34.4213L32.0323 34.4438L32.0626 34.4664L32.0923 34.4889L32.1226 34.5115L32.1523 34.5336L32.1826 34.5561L32.2123 34.5787L32.2426 34.5979L32.2723 34.6123L32.3026 34.6315L32.3323 34.6536L32.3626 34.6761L32.3923 34.6987L32.4226 34.7213L32.4523 34.7438L32.4826 34.7664L32.5123 34.7885L32.5426 34.8149L32.5723 34.8451L32.5949 34.8749L32.6102 34.9051L32.6251 34.9349L32.64 34.9651L32.651 34.9949L32.6587 35.0251L32.6626 35.0549V35.1451L32.6587 35.1749L32.651 35.2051L32.6438 35.2349L32.6362 35.2651L32.629 35.2949L32.6213 35.3251L32.6098 35.3549L32.5954 35.3851L32.5762 35.4149L32.5536 35.4451L32.531 35.4715L32.509 35.4936L32.4826 35.5161L32.4523 35.5387L32.4226 35.5579L32.3923 35.5723L32.3626 35.5838L32.3323 35.591L32.3026 35.5987L32.2723 35.6064L32.2426 35.6097H32.2123L32.1826 35.6064L32.1523 35.5987L32.1226 35.5915L32.0923 35.5838L32.0626 35.5761L32.0323 35.5685L32.0026 35.5574L31.9723 35.5425L31.9426 35.5272L31.9123 35.5128L31.8826 35.4936L31.8523 35.471L31.8226 35.4485L31.7923 35.4264L31.7626 35.4038L31.7323 35.3813L31.7026 35.3587L31.6723 35.3366L31.6426 35.3174L31.6123 35.3025L31.5826 35.2872L31.5523 35.2728L31.5226 35.2536L31.4923 35.2315L31.4626 35.2123L31.4323 35.1979L31.4026 35.1787L31.3723 35.1566L31.3426 35.1374L31.3123 35.1225L31.2826 35.1038L31.2523 35.0813L31.2226 35.0587L31.1923 35.0366L31.1626 35.0174L31.1323 35.0025L31.1026 34.9838L31.0723 34.9613L31.0426 34.9421L31.0123 34.9277L30.9826 34.9123L30.9523 34.8979L30.9226 34.8787L30.8923 34.8566L30.8626 34.8374L30.8323 34.8225L30.8026 34.8072L30.7723 34.7928L30.7426 34.7736L30.7123 34.7515L30.6826 34.7323L30.6523 34.7174L30.6226 34.7021L30.5923 34.6877L30.5626 34.6723L30.5323 34.6574L30.5026 34.6421L30.4723 34.6277L30.4426 34.6123L30.4123 34.5974L30.3826 34.5821L30.3523 34.5677L30.3226 34.5485L30.2923 34.5264L30.2626 34.5072L30.2323 34.4928L30.2026 34.4736L30.1723 34.4515L30.1426 34.4323L30.1123 34.4174L30.0826 34.4021L30.0523 34.3877L30.0226 34.3723L29.9923 34.3574L29.9626 34.3421L29.9323 34.3277L29.9026 34.3123L29.8723 34.2974L29.8426 34.2821L29.8123 34.2677L29.7826 34.2561L29.7523 34.2485L29.7226 34.2374L29.6923 34.2225L29.6626 34.2072L29.6323 34.1928L29.6026 34.1736L29.5723 34.1515L29.5426 34.1323L29.5123 34.1179L29.4826 34.0987L29.4523 34.0761L29.4226 34.0536L29.3923 34.0315L29.3664 34.0051L29.3438 33.9749L29.3213 33.9451L29.2987 33.9149L29.2838 33.8851L29.2762 33.8549L29.2646 33.8251L29.2502 33.7949L29.2426 33.7651V33.6749L29.2464 33.6451L29.2536 33.6149L29.2613 33.5851L29.269 33.5549L29.28 33.5251L29.2949 33.4949L29.3136 33.4651L29.3362 33.4349L29.3587 33.4051L29.3813 33.3749L29.4077 33.3485L29.4374 33.3264L29.4677 33.3077L29.4974 33.2923L29.5277 33.2774L29.5574 33.2625L29.5877 33.2515L29.6174 33.2438L29.6477 33.2361L29.6774 33.2289L29.7077 33.2251H29.7374L29.7677 33.2174L29.7974 33.2025L29.8277 33.1915L29.8574 33.1838L29.8877 33.18H29.9174L29.9477 33.1761L29.9774 33.1689L30.0077 33.1613L30.0374 33.1536L30.0677 33.1464L30.0974 33.1387L30.1277 33.1315L30.1574 33.1238L30.1877 33.12H30.2174L30.2477 33.1161L30.2774 33.1085L30.3077 33.0974L30.3374 33.0825L30.3677 33.0715L30.3974 33.0638L30.4277 33.06H30.4574L30.4877 33.0561L30.5174 33.0489L30.5477 33.0413L30.5774 33.0336L30.6077 33.0264L30.6374 33.0187L30.6677 33.0115L30.6974 33.0038L30.7277 33H30.7574L30.7877 32.9961L30.8174 32.9889L30.8477 32.9813L30.8774 32.9736L30.9077 32.9664L30.9374 32.9587L30.9677 32.9515L30.9974 32.9438L31.0277 32.9361L31.0574 32.9289L31.0877 32.9213L31.1174 32.9136L31.1477 32.9064L31.1774 32.8987L31.2077 32.8915L31.2374 32.8838L31.2677 32.88H31.2974L31.3277 32.8761L31.3574 32.8689L31.3877 32.8613L31.4174 32.8536L31.4477 32.8464L31.4774 32.8387L31.5077 32.8315L31.5374 32.8238L31.5677 32.8161L31.5974 32.8089L31.6277 32.8051H31.6574L31.6877 32.8013L31.7174 32.7936L31.7477 32.7864L31.7774 32.7787L31.8077 32.7715L31.8374 32.7638L31.8677 32.76H31.8974L31.9277 32.7561L31.9574 32.7489L31.9877 32.7413L32.0174 32.7336L32.0477 32.7264L32.0774 32.7187L32.1077 32.7115L32.1374 32.7038L32.1677 32.7H32.1974L32.2277 32.6961L32.2574 32.6889L32.2877 32.6813L32.3174 32.6736L32.3477 32.6664L32.3774 32.6587L32.4077 32.6515L32.4374 32.6438L32.4677 32.64H32.4974L32.5277 32.6361L32.5574 32.6289L32.5877 32.6213L32.6174 32.6136L32.6477 32.6064L32.6774 32.5987L32.7077 32.5915L32.7374 32.5838L32.7677 32.58H32.7974L32.8277 32.5761L32.8574 32.5689L32.8877 32.5613L32.9174 32.5536L32.9477 32.5464L32.9774 32.5387L33.0077 32.5315L33.0374 32.5238L33.0677 32.52H33.0974L33.1277 32.5161L33.1574 32.5089L33.1877 32.5013L33.2174 32.4936L33.2477 32.4864L33.2774 32.4787L33.3077 32.4715L33.3374 32.4638L33.3677 32.46H33.3974L33.4277 32.4561L33.4574 32.4489L33.4877 32.4413L33.5174 32.4336L33.5477 32.4264L33.5774 32.4187L33.6077 32.4115L33.6374 32.4038L33.6677 32.4H33.6974L33.7277 32.3961L33.7574 32.3889L33.7877 32.3851H33.8174L33.8477 32.3813L33.8774 32.3736L33.9077 32.3664L33.9374 32.3587L33.9677 32.3515L33.9974 32.3438L34.0277 32.34H34.0574L34.0877 32.3361L34.1174 32.3289L34.1477 32.3251H34.1774L34.2077 32.3213L34.2374 32.3136L34.2677 32.3064L34.2974 32.2987L34.3277 32.2915L34.3574 32.2838L34.3877 32.28H34.4174L34.4477 32.2761L34.4774 32.2689L34.5077 32.2613L34.5374 32.2536L34.5677 32.2464L34.5974 32.2387L34.6277 32.2349H34.6574L34.6877 32.2315L34.7174 32.2238L34.7477 32.22H34.7774L34.8077 32.2161L34.8374 32.2089L34.8677 32.2013L34.8974 32.1936L34.9277 32.1864L34.9574 32.1787L34.9877 32.1715L35.0174 32.1638L35.0477 32.16H35.0774L35.1077 32.1561L35.1374 32.1489L35.1677 32.1451H35.1974L35.2277 32.1413L35.2574 32.1336L35.2877 32.1264L35.3174 32.1187L35.3477 32.1115L35.3774 32.1038L35.4077 32.1H35.4374L35.4677 32.0961L35.4974 32.0889L35.5277 32.0851H35.5574L35.5877 32.0813L35.6174 32.0736L35.6477 32.0664L35.6774 32.0587L35.7077 32.0515L35.7374 32.0438L35.7677 32.04H35.7974L35.8277 32.0361L35.8574 32.0289L35.8877 32.0251H35.9174L35.9477 32.0213L35.9774 32.0136L36.0077 32.0064L36.0374 31.9987L36.0677 31.9915L36.0974 31.9838L36.1277 31.98H36.1574L36.1877 31.9761L36.2174 31.9689L36.2477 31.9651H36.2774L36.3077 31.9613L36.3374 31.9536L36.3677 31.9497H36.3974L36.4277 31.9464L36.4574 31.9387L36.4877 31.9315L36.5174 31.9238L36.5477 31.92H36.6374L36.6677 31.9161L36.6974 31.9089L36.7277 31.9051H36.7574L36.7877 31.9013L36.8174 31.8936L36.8477 31.8864L36.8774 31.8787L36.9077 31.8749H36.9374L36.9677 31.8715L36.9974 31.8638L37.0277 31.86H37.0574L37.0877 31.8561ZM35.3587 27.4315L35.3813 27.4233L35.3962 27.42H35.4864L35.509 27.4238L35.531 27.431L35.5536 27.4387L35.5762 27.4464L35.5987 27.4536L35.6213 27.4613L35.6438 27.4689L35.6664 27.4761L35.689 27.4877L35.711 27.5021L35.7336 27.5213L35.7562 27.5438L35.7749 27.5664L35.7902 27.5885L35.8051 27.611L35.82 27.6336L35.8349 27.6561L35.8502 27.6787L35.8613 27.7013L35.869 27.7238L35.8762 27.7464L35.8838 27.7685L35.891 27.791L35.8987 27.8136L35.9026 27.8361V27.9038L35.8987 27.9264L35.891 27.9485L35.8877 27.971V27.9936L35.8838 28.0161L35.8762 28.0387L35.869 28.0613L35.8613 28.0838L35.8498 28.1064L35.8349 28.1285L35.8238 28.151L35.8162 28.1736L35.8051 28.1961L35.7898 28.2187L35.7787 28.2413L35.771 28.2638L35.76 28.2864L35.7451 28.3085L35.7336 28.331L35.7264 28.3536L35.7149 28.3761L35.7 28.3987L35.689 28.4213L35.6813 28.4438L35.6698 28.4664L35.6549 28.4885L35.6438 28.511L35.6362 28.5336L35.6251 28.5561L35.6098 28.5787L35.5949 28.6013L35.58 28.6238L35.569 28.6464L35.5613 28.6685L35.5498 28.691L35.5349 28.7136L35.5238 28.7361L35.5162 28.7587L35.5051 28.7813L35.4898 28.8038L35.4749 28.8264L35.46 28.8485L35.449 28.871L35.4413 28.8936L35.4298 28.9161L35.4149 28.9387L35.4 28.9613L35.3851 28.9838L35.3698 29.0064L35.3549 29.0285L35.3438 29.051L35.3362 29.0736L35.3251 29.0961L35.3098 29.1187L35.2987 29.1413L35.291 29.1638L35.28 29.1864L35.2651 29.2085L35.2498 29.231L35.2349 29.2536L35.2238 29.2761L35.2162 29.2987L35.2051 29.3213L35.1898 29.3438L35.1749 29.3664L35.16 29.3885L35.149 29.411L35.1413 29.4336L35.1298 29.4561L35.1149 29.4787L35.1038 29.5013L35.0962 29.5238L35.0851 29.5464L35.0698 29.5685L35.0549 29.591L35.04 29.6136L35.0251 29.6361L35.0098 29.6587L34.9949 29.6813L34.98 29.7038L34.969 29.7264L34.9613 29.7485L34.9498 29.771L34.9349 29.7936L34.92 29.8161L34.9051 29.8387L34.8898 29.8613L34.8749 29.8838L34.8638 29.9064L34.8562 29.9285L34.8451 29.951L34.8298 29.9736L34.8149 29.9961L34.8 30.0187L34.7851 30.0413L34.7698 30.0638L34.7549 30.0864L34.74 30.1085L34.7362 30.131L34.7438 30.1536L34.7587 30.1689L34.7813 30.1761H34.8038L34.8264 30.1689L34.849 30.1651H34.871L34.8936 30.1613L34.9162 30.1536L34.9387 30.1464L34.9613 30.1387L34.9838 30.1349H35.0064L35.029 30.131L35.051 30.1238L35.0736 30.12H35.1413L35.1638 30.1161L35.1864 30.1089L35.209 30.1051H35.231L35.2536 30.1013L35.2762 30.0936L35.2987 30.0902H35.3213L35.3438 30.0864L35.3664 30.0787L35.389 30.0749H35.411L35.4336 30.071L35.4562 30.0638L35.4787 30.06H35.5464L35.569 30.0561L35.591 30.0489L35.6136 30.0451H35.6362L35.6587 30.0413L35.6813 30.0336L35.7038 30.0302H35.7264L35.749 30.0264L35.771 30.0187L35.7936 30.0149H35.8162L35.8387 30.011L35.8613 30.0038L35.8838 30H35.951L35.9736 29.9961L35.9962 29.9889L36.0187 29.9851H36.0413L36.0638 29.9813L36.0864 29.9736L36.109 29.9702H36.131L36.1536 29.9664L36.1762 29.9587L36.1987 29.9549H36.2213L36.2438 29.951L36.2664 29.9438L36.289 29.94H36.4464L36.469 29.9361L36.491 29.9289L36.5136 29.9251H36.5813L36.6038 29.9213L36.6264 29.9136L36.649 29.9064L36.671 29.8987L36.6936 29.8949H36.7613L36.7838 29.891L36.8064 29.8838L36.829 29.88H36.9413L36.9638 29.8761L36.9864 29.8689L37.009 29.8651H37.1213L37.1438 29.8613L37.1664 29.8536L37.189 29.8502H37.211L37.2336 29.8464L37.2562 29.8387L37.2787 29.8349H37.3464L37.369 29.831L37.391 29.8238L37.4136 29.82H37.571L37.5936 29.8161L37.6162 29.8089L37.6387 29.8051H37.7064L37.729 29.8013L37.751 29.7936L37.7736 29.7902H37.7962L37.8187 29.7864L37.8413 29.7787L37.8638 29.7749H37.9762L37.9987 29.771L38.0213 29.7638L38.0438 29.76H38.3813L38.4038 29.7638L38.4264 29.771L38.449 29.7787L38.471 29.7864L38.4936 29.7979L38.5162 29.8123L38.5387 29.8238L38.5613 29.831L38.5838 29.8464L38.6064 29.8685L38.629 29.891L38.651 29.9136L38.6702 29.9361L38.6851 29.9587L38.6962 29.9813L38.7038 30.0038L38.7149 30.0264L38.7302 30.0485L38.7413 30.071L38.749 30.0936L38.7523 30.1161V30.3187L38.749 30.3413L38.7413 30.3638L38.7298 30.3864L38.7149 30.4089L38.7038 30.4315L38.6962 30.4536L38.6846 30.4761L38.6702 30.4987L38.651 30.5213L38.629 30.5438L38.6064 30.5664L38.5838 30.5885L38.5613 30.6077L38.5387 30.6225L38.5162 30.6336L38.4936 30.6413L38.471 30.6451H38.449L38.4264 30.6485L38.4038 30.6561L38.3813 30.6638L38.3587 30.671L38.3362 30.6749H38.3136L38.291 30.6787L38.269 30.6864L38.2464 30.6902H38.2238L38.2013 30.6936L38.1787 30.7013L38.1562 30.7051H38.089L38.0664 30.7085L38.0438 30.7161L38.0213 30.72H37.9536L37.931 30.7238L37.909 30.731L37.8864 30.7349H37.8187L37.7962 30.7387L37.7736 30.7464L37.751 30.7502H37.6838L37.6613 30.7536L37.6387 30.7613L37.6162 30.7651H37.5038L37.4813 30.7685L37.4587 30.7761L37.4362 30.78H37.369L37.3464 30.7838L37.3238 30.791L37.3013 30.7949H37.2787L37.2562 30.7987L37.2336 30.8064L37.211 30.8102H37.189L37.1664 30.8136L37.1438 30.8213L37.1213 30.8251H37.009L36.9864 30.8285L36.9638 30.8361L36.9413 30.84H36.8736L36.851 30.8438L36.829 30.851L36.8064 30.8587L36.7838 30.8664L36.7613 30.8702H36.7387L36.7162 30.8736L36.6936 30.8813L36.671 30.8851H36.5136L36.491 30.8885L36.469 30.8961L36.4464 30.9H36.3787L36.3562 30.9038L36.3336 30.911L36.311 30.9187L36.289 30.9264L36.2664 30.9302H36.1987L36.1762 30.9336L36.1536 30.9413L36.131 30.9451H36.0187L35.9962 30.9485L35.9736 30.9561L35.951 30.96H35.929L35.9064 30.9638L35.8838 30.971L35.8613 30.9749H35.8387L35.8162 30.9787L35.7936 30.9864L35.771 30.9902H35.749L35.7264 30.9936L35.7038 31.0013L35.6813 31.0051H35.569L35.5464 31.0085L35.5238 31.0161L35.5013 31.0238L35.4787 31.031L35.4562 31.0349H35.4336L35.411 31.0387L35.389 31.0464L35.3664 31.0502H35.3438L35.3213 31.0536L35.2987 31.0613L35.2762 31.0651H35.209L35.1864 31.0685L35.1638 31.0761L35.1413 31.08H35.0736L35.051 31.0838L35.029 31.091L35.0064 31.0987L34.9838 31.1064L34.9613 31.1102H34.9387L34.9162 31.1136L34.8936 31.1213L34.871 31.1251H34.8038L34.7813 31.1285L34.7587 31.1361L34.7362 31.14H34.669L34.6464 31.1438L34.6238 31.151L34.6013 31.1587L34.5787 31.1664L34.5562 31.1702H34.489L34.4664 31.1736L34.4438 31.1813L34.4213 31.1851H34.3536L34.331 31.1885L34.309 31.1961L34.2864 31.2H34.2638L34.2413 31.2038L34.2187 31.211L34.1962 31.2187L34.1736 31.2264L34.151 31.2302H34.129L34.1064 31.2336L34.0838 31.2413L34.0613 31.2451H33.8587L33.8362 31.2485L33.8136 31.2561H33.791L33.769 31.2489L33.7464 31.2451H33.6787L33.6562 31.2374L33.6336 31.2221L33.611 31.2077L33.589 31.1923L33.5664 31.1774L33.5438 31.1625L33.5213 31.1472L33.4987 31.1328L33.4762 31.1136L33.4541 31.091L33.4349 31.0685L33.42 31.0464L33.4051 31.0238L33.3898 31.0013L33.3787 30.9787L33.371 30.9561L33.3638 30.9336L33.3562 30.911L33.3523 30.8885V30.8664L33.349 30.8438L33.3413 30.8213L33.3374 30.7987V30.7761L33.3413 30.7536L33.349 30.731L33.3523 30.7085V30.6864L33.3562 30.6638L33.3638 30.6413L33.371 30.6187L33.3787 30.5961L33.3902 30.5736L33.4051 30.551L33.4162 30.5285L33.4238 30.5064L33.431 30.4838L33.4387 30.4613L33.4502 30.4387L33.4651 30.4161L33.48 30.3936L33.4949 30.371L33.5102 30.3485L33.5251 30.3264L33.54 30.3038L33.5549 30.2813L33.5702 30.2587L33.5851 30.2361L33.5962 30.2136L33.6038 30.1915L33.6149 30.1689L33.6302 30.1464L33.6451 30.1238L33.66 30.1013L33.6749 30.0787L33.6902 30.0561L33.7051 30.0336L33.72 30.0115L33.731 29.9889L33.7387 29.9664L33.7502 29.9438L33.7651 29.9213L33.78 29.8987L33.7949 29.8761L33.8102 29.8536L33.8251 29.8315L33.8362 29.8089L33.8438 29.7864L33.8549 29.7638L33.8702 29.7413L33.8851 29.7187L33.9 29.6961L33.911 29.6736L33.9187 29.6515L33.9302 29.6289L33.9451 29.6064L33.96 29.5838L33.9749 29.5613L33.9902 29.5387L34.0051 29.5161L34.0162 29.4936L34.0238 29.4715L34.0349 29.4489L34.0502 29.4264L34.0651 29.4038L34.08 29.3813L34.091 29.3587L34.0987 29.3361L34.1102 29.3136L34.1251 29.2915L34.14 29.2689L34.1549 29.2464L34.1664 29.2238L34.1736 29.2013L34.1851 29.1787L34.2 29.1561L34.2149 29.1336L34.2302 29.1115L34.2413 29.0889L34.249 29.0664L34.26 29.0438L34.2749 29.0213L34.2902 28.9987L34.3051 28.9761L34.32 28.9536L34.3349 28.9315L34.3502 28.9089L34.3651 28.8864L34.3762 28.8638L34.3838 28.8413L34.3949 28.8187L34.4102 28.7961L34.4251 28.7736L34.44 28.7515L34.4549 28.7289L34.4702 28.7064L34.4851 28.6838L34.5 28.6613L34.511 28.6387L34.5187 28.6161L34.5302 28.5936L34.5451 28.5715L34.56 28.5489L34.5749 28.5264L34.5864 28.5038L34.5936 28.4813L34.6051 28.4587L34.62 28.4361L34.631 28.4136L34.6387 28.3915L34.6502 28.3689L34.6651 28.3464L34.68 28.3238L34.6949 28.3013L34.7064 28.2787L34.7136 28.2561L34.7251 28.2336L34.74 28.2115L34.751 28.1889L34.7587 28.1664L34.7702 28.1438L34.7851 28.1213L34.8 28.0987L34.8149 28.0761L34.8264 28.0536L34.8336 28.0315L34.8451 28.0089L34.86 27.9864L34.871 27.9638L34.8792 27.9413L34.8936 27.9187L34.9162 27.8961L34.9349 27.8736L34.9502 27.8515L34.9613 27.8289L34.969 27.8064L34.98 27.7838L34.9949 27.7613L35.0102 27.7387L35.0251 27.7161L35.0362 27.6936L35.0438 27.6715L35.0554 27.6489L35.0698 27.6264L35.089 27.6038L35.111 27.5813L35.1336 27.5587L35.1562 27.5366L35.1787 27.5174L35.2013 27.5021L35.2238 27.4877L35.2464 27.4723L35.269 27.4613L35.291 27.4536L35.3136 27.4464L35.3362 27.4387L35.3587 27.4315Z" fill="#F9F7F7"/>
<path fill-rule="evenodd" clip-rule="evenodd" d="M13.7174 7.19277L14.0477 7.07661L14.3774 6.97917L14.7077 6.89661L15.0374 6.82941L15.3677 6.77661L15.6974 6.73917L15.8736 6.71997H16.4026L16.7323 6.73869L17.0626 6.77613L17.3923 6.82125L17.7226 6.87357L18.0523 6.94509L18.3826 7.03485L18.7123 7.13997L19.0426 7.25997L19.3723 7.40253L19.7026 7.56765L20.0323 7.75485L20.3626 7.96509L20.6923 8.20893L21.0226 8.48637L21.3413 8.78637L21.649 9.10845L21.9149 9.43485L22.14 9.76509L22.3387 10.0949L22.5115 10.4251L22.6651 10.7549L22.8 11.0851L22.92 11.4149L23.0251 11.7451L23.1115 12.0749L23.1787 12.4051L23.231 12.7349L23.269 13.0651L23.2949 13.3949L23.3102 13.7251V14.0549L23.2949 14.3851L23.269 14.7149L23.2315 15.0451L23.1787 15.3749L23.111 15.7051L23.0323 16.0349L22.9426 16.3651L22.8451 16.6949L22.74 17.0251L22.6238 17.3549L22.4962 17.6851L22.38 18.0077L22.2749 18.3225L22.3877 18.4425L22.7174 18.3677L23.0477 18.2779L23.3774 18.1723L23.7077 18.06L24.0374 17.94L24.3677 17.7897L24.6974 17.6102L25.0277 17.4L25.3574 17.16L25.68 16.8859L25.9949 16.5787L26.2762 16.26L26.5238 15.9302L26.651 15.6L26.6587 15.2702L26.6885 14.94L26.7413 14.6102L26.8277 14.28L26.9477 13.9502L27.1013 13.62L27.2885 13.2902L27.5285 12.9974L27.8213 12.7425L28.1323 12.7013L28.4626 12.8736L28.7774 13.1174L29.0774 13.4323L29.3213 13.7549L29.509 14.0851L29.6587 14.4149L29.771 14.7446L29.951 15.0038L30.1987 15.1915L30.4877 15.3489L30.8174 15.4761L31.1477 15.6259L31.4774 15.7987L31.8077 16.0123L32.1374 16.2677L32.4523 16.5561L32.7523 16.8787L33.0038 17.2051L33.2059 17.5349L33.3787 17.8651L33.5213 18.1949L33.6562 18.5251L33.7838 18.8549L33.9 19.1851L34.0051 19.5149L34.1174 19.8451L34.2374 20.1749L34.2749 20.5051L34.2298 20.8349L34.069 21.1541L33.791 21.4613L33.4877 21.7123L33.1574 21.9077L32.8277 22.0646L32.4974 22.1846L32.1677 22.271L31.8374 22.3238L31.5077 22.3536L31.1774 22.3613L30.8477 22.3502L30.5174 22.32L30.1877 22.2749L29.8574 22.2153L29.5277 22.1289L29.1974 22.0161L28.8677 21.8813L28.5374 21.7238L28.3877 21.7574L28.4174 21.9825L28.5749 22.2489L28.86 22.5561L29.1677 22.7885L29.4974 22.9459L29.8277 23.0323L30.1574 23.0477L30.4877 23.0361L30.8174 22.9987L31.1477 22.9689L31.4774 22.9464L31.8077 22.9613L32.1374 23.0136L32.4677 23.1187L32.7974 23.2761L33.1013 23.5089L33.3787 23.8161L33.5587 24.1349L33.6413 24.4651L33.6374 24.7949L33.5477 25.1251L33.371 25.4097L33.109 25.6497L32.8123 25.7102L32.4826 25.5902L32.1523 25.5149L31.8226 25.4851L31.4923 25.511L31.1626 25.5936L30.8323 25.7102L30.5026 25.86L30.1723 26.0025L29.8426 26.1374L29.5123 26.2613L29.1826 26.3736L28.8523 26.4523L28.5226 26.4974L28.1923 26.5161L27.8626 26.5085L27.5323 26.471L27.2026 26.4038L26.8723 26.2987L26.5426 26.1561L26.2123 25.9761L25.8826 25.7587L25.5562 25.5L25.2341 25.2L24.9413 24.8851L24.6787 24.5548L24.4574 24.2251L24.2774 23.8948L24.1162 23.5651L23.9736 23.2348L23.8574 22.9051L23.7677 22.5749L23.7936 22.2638L23.9362 21.971L24.1613 21.8846L24.469 22.0046L24.6638 22.2302L24.7464 22.56L24.8587 22.8907L25.0008 23.2205L25.1736 23.5507L25.3762 23.8805L25.6277 24.2069L25.9277 24.5294L26.2426 24.8141L26.5723 25.0617L26.9026 25.2605L27.2323 25.4107L27.5626 25.5115L27.8923 25.5643L28.2226 25.5715L28.5523 25.5341L28.8826 25.4669L29.2123 25.3694L29.5426 25.2494L29.8723 25.1069L30.2026 24.9643L30.5323 24.8217L30.8626 24.7017L31.1923 24.6043L31.5226 24.5481L31.8523 24.5328L32.1826 24.5481L32.5123 24.5928L32.5762 24.4728L32.3736 24.1881L32.1077 24.0043L31.7774 23.9217L31.4477 23.8953L31.1174 23.9256L30.7877 23.9553L30.4574 23.9856L30.1277 23.9966L29.7974 23.9894L29.4677 23.9366L29.1374 23.8392L28.8077 23.6928L28.4774 23.4984L28.1698 23.2392L27.8851 22.9171L27.6485 22.5907L27.4613 22.2605L27.3077 21.9307L27.1877 21.6005L27.0974 21.2707L27.0374 20.9405L26.9923 20.6107L26.9626 20.2805L27.0902 20.0328L27.3754 19.8681L27.6826 19.9243L28.0123 20.2017L28.3426 20.4566L28.6723 20.6894L29.0026 20.8881L29.3323 21.0528L29.6626 21.1805L29.9923 21.2707L30.3226 21.3379L30.6523 21.383L30.9826 21.4056H31.3123L31.6426 21.3792L31.9723 21.3269L32.3026 21.2405L32.6323 21.1205L32.9323 20.9256L33.2026 20.6553L33.2851 20.3553L33.18 20.0256L33.0677 19.6953L32.9477 19.3656L32.8238 19.0353L32.6962 18.7056L32.5502 18.3753L32.3851 18.0456L32.1749 17.7153L31.92 17.3856L31.6277 17.0856L31.2974 16.8153L30.9677 16.5979L30.6374 16.4328L30.3336 16.3353L30.0566 16.3056L29.8502 16.4481L29.7149 16.763L29.4864 16.8792L29.1638 16.7971L28.9987 16.5907L28.991 16.2605L28.98 15.9307L28.9651 15.6005L28.92 15.2707L28.8451 14.9405L28.7136 14.6107L28.5264 14.2805L28.2974 14.1081L28.0277 14.0928L27.8323 14.2507L27.7123 14.5805L27.6374 14.9107L27.6077 15.2405L27.6298 15.5707L27.7051 15.9005L27.8323 16.2307L28.0123 16.5605L28.1438 16.8907L28.2264 17.2205L28.1102 17.4341L27.7949 17.532L27.5102 17.4264L27.2549 17.1192L26.9851 17.063L26.7 17.2579L26.4 17.4979L26.0851 17.7825L25.7626 18.0417L25.4323 18.2741L25.1026 18.4766L24.7723 18.6494L24.4426 18.7992L24.1123 18.9269L23.7826 19.0425L23.4523 19.1481L23.1226 19.2417L22.7923 19.3243L22.4626 19.3953L22.1323 19.4553L21.8986 19.511L21.7723 19.5534L21.6 19.5936L21.4613 19.6185L21.2592 19.6484L21.0226 19.68L20.7749 19.7261L20.4826 19.7978L20.2838 19.8479L20.2123 19.8643L20.1826 19.872L20.1562 19.8792L20.1336 19.8869L20.1077 19.8941L20.0774 19.9017L20.0477 19.9094L20.0174 19.9166L19.9877 19.9281L19.9574 19.943L19.9277 19.9541L19.8974 19.9617L19.8677 19.9694L19.8374 19.9766L19.8077 19.9881L19.7774 20.003L19.7477 20.0141L19.7174 20.0217L19.6877 20.0294L19.6574 20.0366L19.6277 20.0481L19.5974 20.063L19.5677 20.0784L19.5374 20.0928L19.5077 20.1081L19.4774 20.123L19.4477 20.1384L19.4174 20.1528L19.3877 20.1643L19.3574 20.172L19.3277 20.183L19.2974 20.1979L19.2677 20.2094L19.2374 20.2166L19.2077 20.2281L19.1774 20.243L19.1477 20.2584L19.1174 20.2728L19.0877 20.2881L19.0574 20.303L19.0277 20.3184L18.9974 20.3328L18.9677 20.3481L18.9374 20.363L18.9077 20.3784L18.8774 20.3928L18.8477 20.4081L18.8174 20.423L18.7877 20.4384L18.7574 20.4528L18.7277 20.4715L18.6974 20.4941L18.6677 20.5128L18.6374 20.5281L18.6077 20.543L18.5774 20.5579L18.5477 20.5766L18.5174 20.5992L18.4877 20.6184L18.4574 20.6328L18.4277 20.6515L18.3974 20.6741L18.3677 20.6966L18.3374 20.7192L18.3077 20.7384L18.2774 20.7528L18.2477 20.7715L18.2174 20.7941L18.1877 20.8133L18.1574 20.8277L18.1277 20.8469L18.0974 20.8694L18.0677 20.8953L18.0374 20.9256L18.0077 20.9515L17.9774 20.9741L17.9477 20.9966L17.9174 21.0192L17.8877 21.0456L17.8574 21.0753L17.8277 21.1017L17.7974 21.1243L17.7677 21.1469L17.7374 21.1694L17.7077 21.1953L17.6774 21.2256L17.6477 21.2515L17.6174 21.2741L17.5877 21.3005L17.5574 21.3307L17.5277 21.3605L17.4974 21.3907L17.4677 21.4205L17.4374 21.4507L17.4077 21.4805L17.3774 21.5107L17.3477 21.5405L17.3174 21.5707L17.2877 21.6005L17.2574 21.6307L17.2277 21.6605L17.1974 21.6907L17.171 21.7205L17.149 21.7507L17.1264 21.7766L17.1038 21.7992L17.0774 21.8256L17.0477 21.8553L17.0213 21.8856L16.9987 21.9153L16.9762 21.9456L16.9536 21.9753L16.9277 22.0056L16.8974 22.0353L16.871 22.0656L16.849 22.0953L16.8264 22.1256L16.8038 22.1553L16.7813 22.1856L16.7587 22.2153L16.7362 22.2456L16.7136 22.2753L16.691 22.3056L16.669 22.3353L16.6464 22.3656L16.6238 22.3953L16.6046 22.4256L16.5902 22.4553L16.571 22.4856L16.549 22.5153L16.5264 22.5456L16.5038 22.5753L16.4846 22.6056L16.4702 22.6353L16.451 22.6656L16.429 22.6953L16.4064 22.7256L16.3838 22.7553L16.3646 22.7856L16.3502 22.8153L16.331 22.8456L16.309 22.8753L16.2902 22.9056L16.2749 22.9353L16.26 22.9656L16.2446 22.9953L16.2302 23.0256L16.2149 23.0553L16.2 23.0856L16.1851 23.1153L16.1664 23.1456L16.1438 23.1753L16.1246 23.2056L16.1102 23.2353L16.0949 23.2656L16.08 23.2953L16.069 23.3256L16.0613 23.3553L16.0502 23.3856L16.0349 23.4153L16.02 23.4456L16.0046 23.4753L15.9902 23.5056L15.9749 23.5353L15.96 23.5656L15.9446 23.5953L15.9302 23.6256L15.9149 23.6553L15.9038 23.6856L15.8962 23.7153L15.8851 23.7456L15.8698 23.7753L15.8587 23.8056L15.851 23.8353L15.8438 23.8656L15.8362 23.8953L15.8246 23.9256L15.8102 23.9553L15.7949 23.9856L15.78 24.0153L15.769 24.0456L15.7613 24.0753L15.7502 24.1056L15.7349 24.1353L15.7238 24.1656L15.7162 24.1953L15.709 24.2256L15.7013 24.2553L15.6936 24.2856L15.6864 24.3153L15.6749 24.3456L15.66 24.3753L15.6523 24.4056V24.4353L15.6451 24.4656L15.6298 24.4953L15.6187 24.5256L15.611 24.5553L15.6038 24.5856L15.5962 24.6153L15.5923 24.6456V24.6753L15.589 24.7056L15.5813 24.7353L15.5702 24.7656L15.5549 24.7953L15.5438 24.8256L15.5362 24.8553L15.5323 24.8856V24.9153L15.529 24.9456L15.5213 24.9753L15.5136 25.0056L15.5064 25.0353L15.4987 25.0656L15.491 25.0953L15.4838 25.1256L15.4762 25.1553L15.4723 25.1856V25.2153L15.469 25.2456L15.4613 25.2753L15.4536 25.3056L15.4464 25.3353L15.4387 25.3656L15.431 25.3953L15.4238 25.4256L15.4162 25.4553L15.4123 25.4856V25.5753L15.409 25.6056L15.4013 25.6353L15.3936 25.6656L15.3864 25.6953L15.3826 25.7256V25.7553L15.3787 25.7856L15.371 25.8153L15.3677 25.8456V26.0553L15.3638 26.0856L15.3562 26.1153L15.3523 26.1456V26.7753L15.3562 26.8056L15.3638 26.8353L15.3677 26.8656V26.9553L15.371 26.9856L15.3787 27.0153L15.3864 27.0456L15.3936 27.0753L15.3974 27.1056V27.1353L15.4013 27.1656L15.409 27.1953L15.4123 27.2256V27.3153L15.4162 27.3456L15.4238 27.3753L15.431 27.4056L15.4387 27.4353L15.4464 27.4656L15.4536 27.4953L15.4613 27.5256L15.469 27.5553L15.4723 27.5856V27.6753L15.4762 27.7056L15.4838 27.7353L15.491 27.7656L15.4987 27.7953L15.5064 27.8256L15.5136 27.8553L15.5213 27.8856L15.529 27.9153L15.5323 27.9456V27.9753L15.5362 28.0056L15.5438 28.0353L15.551 28.0656L15.5587 28.0953L15.5664 28.1256L15.5736 28.1553L15.5813 28.1856L15.589 28.2153L15.5962 28.2456L15.6038 28.2753L15.611 28.3056L15.6187 28.3353L15.6298 28.3656L15.6451 28.3953L15.6562 28.4256L15.6638 28.4553L15.671 28.4856L15.6787 28.5153L15.6864 28.5456L15.6936 28.5753L15.7013 28.6056L15.709 28.6353L15.72 28.6656L15.7354 28.6953L15.7498 28.7256L15.7651 28.7553L15.7762 28.7856L15.7838 28.8153L15.7949 28.8456L15.8102 28.8753L15.8213 28.9056L15.829 28.9353L15.84 28.9656L15.8554 28.9953L15.8698 29.0256L15.8851 29.0553L15.8962 29.0856L15.9038 29.1153L15.9154 29.1456L15.9298 29.1753L15.9451 29.2056L15.96 29.2353L15.9754 29.2656L15.9898 29.2953L16.0051 29.3256L16.02 29.3553L16.0354 29.3856L16.0498 29.4153L16.0651 29.4456L16.08 29.4753L16.0954 29.5056L16.1098 29.5353L16.1251 29.5656L16.14 29.5953L16.1554 29.6256L16.1698 29.6553L16.1851 29.6856L16.2 29.7153L16.2187 29.7456L16.2408 29.7753L16.26 29.8056L16.2749 29.8353L16.2936 29.8656L16.3162 29.8953L16.3354 29.9256L16.3498 29.9553L16.369 29.9856L16.391 30.0153L16.4102 30.0456L16.4246 30.0753L16.4438 30.1056L16.4664 30.1353L16.4923 30.1507H16.5221L16.5413 30.1353L16.549 30.1056V30.0753L16.5413 30.0456L16.5374 30.0153V29.9856L16.5336 29.9553L16.5264 29.9256L16.5226 29.8953V29.6856L16.5187 29.6553L16.511 29.6256L16.5077 29.5953V28.3656L16.511 28.3353L16.5187 28.3056L16.5226 28.2753V28.1256L16.5264 28.0953L16.5336 28.0656L16.5413 28.0353L16.549 28.0056L16.5523 27.9753V27.9456L16.5562 27.9153L16.5638 27.8856L16.5677 27.8553V27.8256L16.571 27.7953L16.5787 27.7656L16.5826 27.7353V27.7056L16.5864 27.6753L16.5936 27.6456L16.6013 27.6153L16.609 27.5856L16.6123 27.5553V27.5256L16.6162 27.4953L16.6238 27.4656L16.6277 27.4353V27.4056L16.631 27.3753L16.6387 27.3456L16.6464 27.3153L16.6536 27.2856L16.6613 27.2553L16.669 27.2256L16.6762 27.1953L16.6838 27.1656L16.6877 27.1353V27.1056L16.691 27.0753L16.6987 27.0456L16.7064 27.0153L16.7136 26.9856L16.7213 26.9553L16.729 26.9256L16.7362 26.8953L16.7438 26.8656L16.751 26.8353L16.7587 26.8056L16.7664 26.7753L16.7736 26.7456L16.7813 26.7153L16.789 26.6856L16.7962 26.6553L16.8038 26.6256L16.811 26.5953L16.8187 26.5656L16.8298 26.5353L16.8451 26.5056L16.8562 26.4753L16.8638 26.4456L16.871 26.4153L16.8787 26.3856L16.8864 26.3553L16.8936 26.3256L16.9013 26.2953L16.909 26.2656L16.9162 26.2353L16.9238 26.2056L16.9349 26.1753L16.9502 26.1456L16.9613 26.1153L16.969 26.0856L16.9762 26.0553L16.9838 26.0256L16.991 25.9953L16.9987 25.9656L17.0098 25.9353L17.0251 25.9056L17.0362 25.8753L17.0438 25.8456L17.0549 25.8153L17.0702 25.7856L17.0813 25.7553L17.089 25.7256L17.1 25.6953L17.1149 25.6656L17.1264 25.6353L17.1336 25.6056L17.1451 25.5753L17.16 25.5456L17.171 25.5153L17.1787 25.4856L17.1898 25.4553L17.2051 25.4256L17.3 25.2902L17.4374 25.1256L17.6477 24.9153L17.9477 24.6456L18.3374 24.3753L18.6677 24.1953L18.9216 24.1056L19.1323 24.0153L19.4323 23.8953L19.68 23.8056L20.1226 23.7115L20.4523 23.6443L20.7826 23.6025L21.1123 23.5881L21.4426 23.5953L21.7723 23.6256L22.1026 23.6856L22.4323 23.7753L22.7626 23.8915L23.0923 24.0341L23.4226 24.2179L23.7523 24.443L24.0715 24.7094L24.3787 25.0166L24.6413 25.3353L24.8587 25.6656L25.0426 25.9953L25.1923 26.3256L25.309 26.6553L25.391 26.9856L25.451 27.3153L25.489 27.6456L25.5 27.9753L25.4851 28.3056L25.4434 28.6353L25.3762 28.9656L25.2936 29.2953L25.1962 29.6256L25.1174 29.9294L25.0579 30.2069L25.1923 30.3153L25.5226 30.2553L25.8523 30.2256H26.1826L26.5123 30.2707L26.8426 30.3605L27.1613 30.5443L27.469 30.8217L27.7502 31.0392L28.0046 31.1966L28.2974 31.2417L28.6277 31.1741L28.9574 31.1064L29.2877 31.0392L29.6174 30.9643L29.9477 30.8817L30.2774 30.7766L30.6077 30.6494L30.9374 30.4805L31.2677 30.2707L31.5974 30.0269L31.9277 29.7494L32.2426 29.4456L32.5426 29.1153L32.8123 28.7856L33.0523 28.4553L33.2774 28.1256L33.4877 27.7953L33.6864 27.4656L33.8736 27.1353L34.1323 26.9707H34.4626L34.6387 27.1353L34.6613 27.4656L34.5749 27.7953L34.38 28.1256L34.1808 28.4553L33.9792 28.7856L33.7536 29.1153L33.5064 29.4456L33.2285 29.7753L32.9213 30.1056L32.6026 30.4128L32.2723 30.6979L31.9426 30.9489L31.6123 31.1669L31.2826 31.3579L30.9523 31.5225L30.6226 31.6617L30.2923 31.7741L29.9626 31.8643L29.6323 31.932L29.3026 31.9992L28.9723 32.0669L28.6426 32.1345L28.3123 32.2017L27.9826 32.2656L27.6523 32.3256L27.3226 32.3894L26.9923 32.4571L26.6626 32.5243L26.3323 32.592L26.0026 32.6592L25.6723 32.7269L25.3426 32.7902L25.0123 32.8507L24.6826 32.9145L24.3523 32.9817L24.0226 33.0494L23.6923 33.1171L23.3626 33.1843L23.0323 33.252L22.7026 33.3192L22.3723 33.3869L22.0426 33.4579L21.7123 33.5328L21.3826 33.6043L21.0523 33.672L20.7226 33.7392L20.3923 33.8069L20.0626 33.8817L19.7323 33.9643L19.4026 34.043L19.0723 34.1179L18.7426 34.1928L18.4123 34.2681L18.0826 34.3507L17.7523 34.4405L17.4226 34.5269L17.0923 34.6089L16.7626 34.6953L16.4323 34.7856L16.1026 34.8792L15.7723 34.9766L15.4426 35.0707L15.1123 35.1605L14.7826 35.2507L14.4523 35.3405L14.1226 35.4417L13.7923 35.5541L13.4626 35.6592L13.1323 35.7571L12.8026 35.8579L12.4723 35.9625L12.1426 36.0681L11.8123 36.1728L11.4826 36.2856L11.1523 36.4056L10.8226 36.5256L10.4923 36.6456L10.1626 36.7056H9.83232L9.64512 36.5443L9.6 36.2217L9.73872 35.9779L10.0613 35.8133L10.3877 35.6741L10.7174 35.5617L11.0477 35.4456L11.3774 35.3256L11.7077 35.2128L12.0374 35.1081L12.3677 35.003L12.6974 34.8979L13.0277 34.7933L13.3574 34.6877L13.6877 34.5869L14.0174 34.4894L14.3477 34.392L14.6774 34.2941L15.0077 34.2005L15.3374 34.1107L15.6677 34.0205L15.9979 33.9307L16.3051 33.8289L16.5902 33.7166L16.5677 33.623L16.2374 33.5481L15.9077 33.4656L15.5774 33.3753L15.2477 33.2741L14.9174 33.1617L14.5877 33.0341L14.2574 32.8915L13.9277 32.7264L13.5974 32.5392L13.2677 32.3328L12.9374 32.1081L12.6077 31.8643L12.2774 31.6017L11.9549 31.3166L11.64 31.0089L11.3438 30.6907L11.0664 30.3605L10.8149 30.0307L10.5902 29.7005L10.38 29.3707L10.1851 29.0405L10.0123 28.7107L9.86208 28.3805L9.72768 28.0507L9.60768 27.7205L9.49872 27.3907L9.40128 27.0605L9.32256 26.7307L9.26256 26.4005L9.20976 26.0707L9.16512 25.7405L9.13488 25.4107L9.12 25.0805V24.7507L9.13488 24.4205L9.16128 24.0907L9.19872 23.7605L9.24768 23.4307L9.30768 23.1005L9.37872 22.7707L9.46128 22.4405L9.55872 22.1107L9.67104 21.7805L9.79104 21.4507L9.91872 21.1205L10.0651 20.7907L10.2298 20.4605L10.4026 20.1307L10.5826 19.8005L10.7774 19.4707L10.9877 19.1405L11.2051 18.8107L11.4298 18.4805L11.6626 18.1507L11.9026 17.8205L12.1464 17.4907L12.3936 17.1605L12.6374 16.8307L12.8774 16.5005L13.1026 16.1707L13.3128 15.8405L13.5 15.5107L13.6651 15.1805L13.7962 14.8507L13.8936 14.5205L13.9464 14.1907L13.9536 13.8605L13.8936 13.5307L13.7664 13.2005L13.5485 12.8966L13.2413 12.6192L12.9226 12.4243L12.5923 12.3115L12.2626 12.2707L11.9323 12.3005L11.6026 12.3941L11.2728 12.5515L10.9464 12.7805L10.6238 13.0805L10.3013 13.2825L9.97872 13.3881L9.75024 13.283L9.61488 12.9681L9.5736 12.6456L9.6264 12.3153L9.69024 11.9856L9.76464 11.6553L9.85104 11.3256L9.94896 10.9953L10.0762 10.6656L10.2336 10.3353L10.4174 10.0056L10.6277 9.67533L10.8638 9.34557L11.1259 9.01533L11.4187 8.70045L11.7413 8.40045L12.0677 8.13021L12.3974 7.89021L12.7277 7.67661L13.0574 7.48941L13.3877 7.32813L13.7174 7.19277ZM16.4174 7.67277L16.2677 7.66941L16.1174 7.67661L16.0277 7.67997H15.9974L15.9077 7.68765L15.7574 7.70253L15.6077 7.71789L15.4574 7.73229L15.3077 7.75101L15.1574 7.77357L15.0077 7.79997L14.8574 7.83021L14.7077 7.86381L14.5574 7.90125L14.4077 7.95021L14.2574 8.01021L14.1077 8.06589L13.9574 8.11869L13.8077 8.18253L13.6574 8.25741L13.5077 8.33229L13.3574 8.40717L13.2077 8.49357L13.0574 8.59149L12.9077 8.69229L12.7574 8.79741L12.6077 8.91357L12.4574 9.04125L12.311 9.17229L12.169 9.30765L12.0302 9.45021L11.8949 9.59997L11.771 9.75021L11.6587 9.89997L11.5498 10.0502L11.4451 10.2L11.3477 10.3502L11.2574 10.5L11.1749 10.6502L11.1 10.8L11.0251 10.9502L10.9502 11.1L10.8864 11.2502L10.8336 11.4L10.8187 11.5277L10.8413 11.6323L10.9277 11.6477L11.0774 11.5723L11.2277 11.5123L11.3774 11.4677L11.5277 11.4225L11.6774 11.3774L11.8277 11.3438L11.9774 11.3213L12.1277 11.3097H12.2774L12.4277 11.3179L12.5774 11.3323L12.7277 11.3587L12.8774 11.3961L13.0277 11.4413L13.1774 11.4936L13.3277 11.5497L13.4774 11.6097L13.6277 11.6889L13.7774 11.7864L13.9277 11.8987L14.0774 12.0259L14.2162 12.1651L14.3438 12.3149L14.4562 12.4651L14.5536 12.6149L14.6366 12.7651L14.7038 12.9149L14.76 13.0651L14.8051 13.2149L14.8426 13.3651L14.8723 13.5149L14.8987 13.6651L14.9213 13.8149L14.929 13.9651L14.9208 14.1149L14.9064 14.2651L14.8838 14.4149L14.8574 14.5651L14.8272 14.7149L14.7936 14.8651L14.7562 15.0149L14.7115 15.1651L14.6587 15.3149L14.5987 15.4651L14.531 15.6149L14.4562 15.7651L14.3736 15.9149L14.291 16.0651L14.209 16.2149L14.1226 16.3651L14.0323 16.5149L13.9354 16.6651L13.8298 16.8149L13.7251 16.9651L13.62 17.1149L13.511 17.2651L13.3987 17.4149L13.2864 17.5651L13.1736 17.7149L13.0613 17.8651L12.949 18.0149L12.8438 18.1651L12.7464 18.3149L12.6374 18.4651L12.5174 18.6149L12.4013 18.7651L12.289 18.9149L12.18 19.0651L12.0749 19.2149L11.9736 19.3651L11.8762 19.5149L11.7826 19.6651L11.6923 19.8149L11.6026 19.9651L11.5123 20.1149L11.4226 20.2651L11.3323 20.4149L11.2502 20.5651L11.1749 20.7149L11.1 20.8651L11.0251 21.0149L10.9536 21.1651L10.8864 21.3149L10.8226 21.4651L10.7626 21.6149L10.7026 21.7651L10.6426 21.9149L10.5864 22.0651L10.5336 22.2149L10.4851 22.3651L10.44 22.5149L10.3987 22.6651L10.3613 22.8148L10.3238 22.9651L10.2859 23.1149L10.2523 23.2651L10.2226 23.4149L10.1962 23.5651L10.1741 23.7149L10.1549 23.8651L10.14 24.0149L10.1213 24.1651L10.0987 24.3148L10.0838 24.4651L10.0762 24.6149L10.0723 24.7651V24.9149L10.0762 25.0651L10.0838 25.2149L10.0954 25.3651L10.1098 25.5149L10.1251 25.6651L10.14 25.8148L10.1587 25.9651L10.1813 26.1149L10.2077 26.2651L10.2374 26.4149L10.271 26.5651L10.309 26.7149L10.3464 26.8651L10.3838 27.0149L10.429 27.1651L10.4808 27.3148L10.5336 27.4651L10.5864 27.6149L10.6464 27.7651L10.7141 27.9149L10.7813 28.0651L10.849 28.2149L10.92 28.3651L10.9949 28.5149L11.0774 28.6651L11.1677 28.8148L11.2574 28.9651L11.3477 29.1149L11.449 29.2651L11.5613 29.4149L11.6736 29.5651L11.7864 29.7149L11.9064 29.8651L12.0336 30.0149L12.169 30.1651L12.311 30.3148L12.4574 30.4613L12.6077 30.6038L12.7574 30.7387L12.9077 30.8664L13.0574 30.9897L13.2077 31.1097L13.3574 31.2221L13.5077 31.3277L13.6574 31.4323L13.8077 31.5374L13.9574 31.6349L14.1077 31.7251L14.2574 31.8115L14.4077 31.8936L14.5574 31.9723L14.7077 32.0477L14.8574 32.1149L15.0077 32.1749L15.1574 32.2348L15.3077 32.2949L15.4574 32.3477L15.6077 32.3923L15.7574 32.4374L15.9077 32.4825L16.0574 32.5238L16.2077 32.5613L16.3574 32.5949L16.5077 32.6251L16.6574 32.6549L16.8077 32.6851L16.9574 32.7149L17.1077 32.7451L17.2574 32.7677L17.4077 32.7825L17.5574 32.7979L17.7077 32.8123L17.8574 32.8277L18.0077 32.8425L18.1574 32.8536L18.3077 32.8613L18.4574 32.8685L18.6077 32.8761H18.7574L18.9077 32.8689L19.0574 32.8651H19.2077L19.3574 32.8574L19.5077 32.8425L19.6574 32.8315L19.8077 32.8238L19.9574 32.8123L20.1077 32.7979L20.2574 32.7787L20.4077 32.7566L20.5574 32.7374L20.7077 32.7225L20.8574 32.7038L21.0077 32.6813L21.1574 32.6587L21.3077 32.6361L21.4574 32.6102L21.6077 32.58L21.7574 32.5464L21.9077 32.5085L22.0574 32.4749L22.2077 32.4451L22.3574 32.4115L22.5077 32.3736L22.6574 32.34L22.8077 32.3102L22.9574 32.2838L23.1077 32.2613L23.2574 32.2348L23.4077 32.2051L23.5574 32.1749L23.7077 32.1451L23.8574 32.1149L24.0077 32.0851L24.1574 32.0549L24.3077 32.0251L24.4574 31.9949L24.6077 31.9651L24.7574 31.9315L24.9077 31.8936L25.0574 31.86L25.2077 31.8302L25.3574 31.8L25.5077 31.7702L25.6574 31.7438L25.8077 31.7213L25.9574 31.6949L26.1077 31.6651L26.2574 31.6349L26.4077 31.6051L26.5574 31.5749L26.7077 31.5451L26.7451 31.4736L26.6698 31.3613L26.5574 31.2749L26.4077 31.2149L26.2574 31.1736L26.1077 31.1515H25.9574L25.8077 31.1736L25.6574 31.1961L25.5077 31.2187L25.3574 31.2451L25.2077 31.2749L25.0574 31.3051L24.9077 31.3349L24.7574 31.3651L24.6077 31.3949L24.4574 31.4251L24.3077 31.4549L24.1574 31.4851L24.0077 31.5149L23.8574 31.5336L23.7077 31.5413L23.5574 31.5L23.4072 31.4102L23.3064 31.2902L23.2536 31.14L23.2574 30.9902L23.3174 30.84L23.4077 30.6902L23.5277 30.54L23.6477 30.3902L23.7677 30.24L23.8838 30.0902L23.9962 29.94L24.0898 29.7902L24.1651 29.64L24.2323 29.4902L24.2923 29.34L24.3451 29.1902L24.3898 29.04L24.431 28.8902L24.469 28.74L24.4987 28.5902L24.5213 28.44L24.5362 28.2902L24.5438 28.14L24.5477 27.9902V27.84L24.54 27.6902L24.5251 27.54L24.5026 27.3902L24.4723 27.24L24.4349 27.0902L24.3898 26.94L24.3451 26.7902L24.3 26.64L24.24 26.4902L24.1651 26.34L24.0787 26.1902L23.9813 26.04L23.8723 25.8902L23.7523 25.74L23.6213 25.5936L23.4787 25.4515L23.3323 25.3161L23.1826 25.1889L23.0323 25.08L22.8826 24.9902L22.7323 24.9038L22.5826 24.8213L22.4323 24.7574L22.2826 24.7123L22.1323 24.6677L21.9826 24.6225L21.8323 24.5923L21.6826 24.5779L21.5323 24.5587L21.3826 24.5361L21.2323 24.5251H21.0826L20.9323 24.5328L20.7826 24.5472L20.6323 24.5664L20.4826 24.5889L20.3323 24.6149L20.1826 24.6451L20.0323 24.6859L19.5826 24.8774L19.4323 24.9523L19.2826 25.0277L19.1323 25.1174L18.9826 25.2225L18.8323 25.3425L18.6826 25.4774L18.54 25.62L18.4051 25.7702L18.2813 25.92L18.1685 26.0702L18.0677 26.22L17.9774 26.3702L17.8987 26.52L17.831 26.6702L17.7715 26.82L17.7187 26.9702L17.6698 27.12L17.6246 27.2702L17.591 27.42L17.569 27.5702L17.5464 27.72L17.5238 27.8702L17.5051 28.02L17.4898 28.1702L17.4787 28.32L17.471 28.4702L17.4638 28.62L17.4562 28.7702L17.4523 28.92V29.0702L17.4562 29.22L17.4638 29.3702L17.471 29.52L17.4787 29.6702L17.4902 29.82L17.5046 29.9702L17.5238 30.12L17.5464 30.2702L17.569 30.42L17.591 30.5702L17.6136 30.72L17.6362 30.8702L17.6664 31.02L17.7038 31.1702L17.7451 31.32L17.7902 31.4702L17.8277 31.62L17.8574 31.7702L17.8498 31.92L17.8051 32.0702L17.711 32.1902L17.569 32.28L17.4226 32.3174L17.2723 32.3025L17.1226 32.2464L16.9723 32.1485L16.8226 32.0285L16.6723 31.8864L16.5302 31.74L16.3949 31.5902L16.2638 31.44L16.1362 31.2902L16.0123 31.14L15.8923 30.9902L15.78 30.84L15.6749 30.6902L15.5774 30.54L15.4877 30.3902L15.4013 30.24L15.3187 30.0902L15.24 29.94L15.1651 29.7902L15.0936 29.64L15.0264 29.4902L14.9626 29.34L14.9026 29.1902L14.8464 29.04L14.7936 28.8902L14.749 28.74L14.711 28.5902L14.6702 28.44L14.6246 28.2902L14.591 28.14L14.569 27.9902L14.5464 27.84L14.5238 27.6902L14.5013 27.54L14.4787 27.3902L14.4638 27.24L14.4562 27.0902L14.4451 26.94L14.4298 26.7902L14.4187 26.64L14.411 26.4902V26.34L14.4187 26.1902L14.4298 26.04L14.4451 25.8902L14.4562 25.74L14.4638 25.5902L14.4787 25.44L14.5013 25.2902L14.5277 25.14L14.5574 24.9902L14.5838 24.84L14.6064 24.6902L14.6362 24.54L14.6736 24.3902L14.711 24.24L14.749 24.0902L14.7974 23.94L14.8574 23.7902L14.9136 23.64L14.9664 23.4902L15.0264 23.34L15.0941 23.1902L15.1613 23.04L15.229 22.8902L15.3038 22.74L15.3864 22.5902L15.469 22.44L15.551 22.2902L15.6446 22.14L15.7502 21.9902L15.8549 21.84L15.96 21.6902L16.0723 21.54L16.1923 21.3902L16.3238 21.24L16.4664 21.0897L16.609 20.9438L16.751 20.8013L16.8936 20.6621L17.0362 20.5277L17.1826 20.4L17.3323 20.28L17.4826 20.1677L17.6323 20.0621L17.7826 19.9613L17.9323 19.8638L18.0826 19.7702L18.2323 19.68L18.3826 19.5936L18.5323 19.511L18.6826 19.4323L18.8323 19.3574L18.9826 19.2897L19.1323 19.2302L19.2826 19.1741L19.4323 19.1213L19.5826 19.0689L19.7323 19.0161L19.8826 18.9677L20.0323 18.9225L20.1826 18.8851L20.3323 18.8549L20.4826 18.8213L20.6323 18.7838L20.7749 18.7277L20.9102 18.6523L21.0226 18.54L21.1123 18.3902L21.191 18.24L21.2592 18.0902L21.3264 17.94L21.3941 17.7902L21.4613 17.64L21.529 17.4902L21.5923 17.34L21.6523 17.1902L21.7123 17.04L21.7723 16.8902L21.829 16.74L21.8808 16.5902L21.9336 16.44L21.9864 16.2902L22.031 16.14L22.069 15.9902L22.1064 15.84L22.1438 15.6902L22.1774 15.54L22.2077 15.3902L22.2336 15.24L22.2562 15.0902L22.2787 14.94L22.3013 14.7902L22.3162 14.64L22.3238 14.4902L22.331 14.34L22.3387 14.1902L22.3426 14.04V13.8902L22.3387 13.74L22.331 13.5902L22.3277 13.44V13.2907L22.3162 13.1405L22.2936 12.9907L22.271 12.8405L22.249 12.6907L22.2264 12.5405L22.2034 12.3907L22.1698 12.2405L22.1251 12.0907L22.08 11.9405L22.0349 11.7907L21.9864 11.6405L21.9336 11.4907L21.8774 11.3405L21.8174 11.1907L21.7536 11.0405L21.6864 10.8907L21.611 10.7405L21.529 10.5907L21.4426 10.4405L21.3523 10.2907L21.251 10.1405L21.1387 9.99069L21.0187 9.84045L20.891 9.69069L20.7562 9.54045L20.6136 9.39069L20.4677 9.25149L20.3174 9.12429L20.1677 9.00429L20.0174 8.89149L19.8677 8.78301L19.7174 8.67789L19.5677 8.58045L19.4174 8.49069L19.2677 8.40813L19.1174 8.33277L18.9677 8.26557L18.8174 8.20557L18.6677 8.14557L18.5174 8.08557L18.3677 8.03277L18.2174 7.98813L18.0677 7.94685L17.9174 7.90941L17.7677 7.87149L17.6174 7.83405L17.4677 7.80429L17.3174 7.78173L17.1677 7.75917L17.0174 7.73709L16.8677 7.71789L16.7174 7.70253L16.5677 7.68813L16.4174 7.67277Z" fill="#F9F7F7"/>
</g>
<path d="M40.6593 19.9766C40.5681 21.5837 40.6339 23.0933 39.2865 25.0425C37.595 27.1819 35.6952 27.8097 34.6075 27.6537C34.1644 26.5675 34.3699 24.6441 36.0686 22.4923C37.6555 20.483 39.3969 20.2809 40.6593 19.9766ZM31.1016 35.5171C32.5857 35.5224 33.9672 35.3789 35.652 36.5505C37.4822 38.0381 37.9142 39.8001 37.6824 40.8393C36.6504 41.3227 34.9032 41.2281 33.0595 39.7344C31.3368 38.339 31.2916 36.708 31.1016 35.5171Z" fill="#2F6634" stroke="#F9F7F7" stroke-width="0.6"/>
</g>
<defs>
<clipPath id="clip0_173_35">
<rect width="48" height="48" fill="white"/>
</clipPath>
<clipPath id="clip1_173_35">
<rect width="29.76" height="34.08" fill="white" transform="translate(9.12 6.71997)"/>
</clipPath>
</defs>
</svg>
