<svg width="100" height="100" viewBox="0 0 100 100" fill="none" xmlns="http://www.w3.org/2000/svg">
<g clip-path="url(#clip0_167_79)">
<path d="M85 0H15C6.71573 0 0 6.71573 0 15V85C0 93.2843 6.71573 100 15 100H85C93.2843 100 100 93.2843 100 85V15C100 6.71573 93.2843 0 85 0Z" fill="#F9F7F7"/>
<g clip-path="url(#clip1_167_79)">
<path fill-rule="evenodd" clip-rule="evenodd" d="M55.4599 71.32L55.5699 71.305L55.6799 71.289L55.7729 71.281H56.7099L56.8199 71.289L56.9289 71.305L57.0389 71.313H57.1479L57.2569 71.32L57.3669 71.336L57.4769 71.344H57.5849L57.6949 71.351L57.8039 71.367L57.9139 71.383L58.0229 71.398L58.1319 71.414L58.2419 71.43L58.3519 71.445L58.4599 71.461L58.5699 71.476L58.6789 71.492L58.7889 71.508L58.8979 71.524L59.0069 71.547L59.1169 71.578L59.2269 71.601L59.3349 71.617L59.4449 71.633L59.5539 71.648L59.6639 71.68L59.7729 71.727L59.8819 71.758L59.9919 71.774L60.1019 71.797L60.2099 71.829L60.3199 71.859L60.4289 71.891L60.5389 71.922L60.6479 71.954L60.7569 71.984L60.8669 72.016L60.9769 72.047L61.0849 72.078L61.1949 72.11L61.3039 72.14L61.4139 72.18L61.5229 72.226L61.6319 72.266L61.7419 72.297L61.8519 72.329L61.9599 72.359L62.0699 72.399L62.1789 72.445L62.2889 72.485L62.3979 72.515L62.5069 72.555L62.6169 72.601L62.7269 72.656L62.8349 72.719L62.9449 72.766L63.0539 72.796L63.1639 72.836L63.2729 72.883L63.3819 72.93L63.4919 72.976L63.6019 73.031L63.7099 73.094L63.8199 73.149L63.9289 73.195L64.0389 73.242L64.1479 73.289L64.2569 73.336L64.3669 73.383L64.4769 73.438L64.5849 73.5L64.6949 73.555L64.8039 73.601L64.9139 73.656L65.0229 73.719L65.1319 73.781L65.2419 73.844L65.3509 73.906L65.4609 73.969L65.5629 74.054L65.6569 74.164L65.7269 74.273L65.7729 74.382L65.8129 74.492L65.8439 74.601L65.8589 74.711V74.82L65.8429 74.929L65.8129 75.039L65.7729 75.148L65.7269 75.257L65.6479 75.367L65.5399 75.476L65.4299 75.563L65.3209 75.625L65.2109 75.672L65.1019 75.703L64.9929 75.719H64.8829L64.7729 75.711L64.6649 75.695L64.5549 75.664L64.4459 75.617L64.3359 75.57L64.2269 75.523L64.1179 75.476L64.0079 75.43L63.8979 75.375L63.7899 75.313L63.6799 75.258L63.5709 75.211L63.4609 75.164L63.3519 75.117L63.2429 75.07L63.1329 75.024L63.0229 74.969L62.9149 74.906L62.8049 74.851L62.6959 74.805L62.5859 74.758L62.4769 74.711L62.3679 74.664L62.2579 74.617L62.1479 74.57L62.0399 74.524L61.9299 74.484L61.8209 74.454L61.7109 74.414L61.6019 74.368L61.4929 74.328L61.3829 74.297L61.2729 74.265L61.1649 74.235L61.0549 74.195L60.9459 74.149L60.8359 74.109L60.7269 74.079L60.6179 74.039L60.5079 73.993L60.3979 73.953L60.2899 73.922L60.1799 73.89L60.0709 73.86L59.9609 73.82L59.8519 73.773L59.7429 73.742L59.6329 73.726L59.5229 73.703L59.4149 73.671L59.3049 73.641L59.1959 73.609L59.0859 73.586L58.9769 73.57L58.8679 73.546L58.7579 73.516L58.6479 73.492L58.5399 73.477L58.4299 73.461L58.3209 73.445L58.2109 73.43L58.1019 73.414L57.9929 73.399L57.8829 73.383L57.7729 73.367L57.6649 73.352L57.5549 73.344H57.4459L57.3359 73.336L57.2269 73.32L57.1179 73.305L57.0079 73.289L56.8979 73.281H56.7899L56.6799 73.274L56.5709 73.258L56.4609 73.25H56.3519L56.2429 73.258L56.1329 73.273L56.0229 73.281H55.6959L55.5859 73.289L55.4769 73.305L55.3679 73.32L55.2579 73.336L55.1479 73.344H55.0399L54.9299 73.351L54.8209 73.367L54.7109 73.391L54.6019 73.422L54.4929 73.445L54.3829 73.461L54.2729 73.476L54.1649 73.492L54.0549 73.516L53.9459 73.547L53.8359 73.57L53.7269 73.586L53.6179 73.609L53.5079 73.641L53.3979 73.672L53.2899 73.704L53.1799 73.734L53.0709 73.766L52.9609 73.797L52.8519 73.828L52.7429 73.867L52.6329 73.914L52.5229 73.954L52.4149 73.984L52.3049 74.016L52.1959 74.047L52.0859 74.079L51.9769 74.109L51.8679 74.149L51.7579 74.195L51.6479 74.234L51.5399 74.266L51.4299 74.297L51.3209 74.328L51.2109 74.367L51.1019 74.414L50.9929 74.454L50.8829 74.484L50.7729 74.524L50.6649 74.571L50.5549 74.601L50.4459 74.617L50.3359 74.649L50.2269 74.695L50.1179 74.742L50.0079 74.789L49.8979 74.829L49.7899 74.859L49.6799 74.899L49.5709 74.945L49.4609 74.985L49.3519 75.015L49.2429 75.055L49.1329 75.101L49.0229 75.141L48.9149 75.172L48.8049 75.204L48.6959 75.234L48.5859 75.274L48.4769 75.32L48.3679 75.367L48.2579 75.414L48.1479 75.454L48.0399 75.484L47.9299 75.524L47.8209 75.57L47.7109 75.617L47.6019 75.664L47.4929 75.711L47.3829 75.758L47.2729 75.805L47.1649 75.852L47.0549 75.899L46.9459 75.945L46.8359 75.992L46.7269 76.039L46.6179 76.079L46.5079 76.109L46.3979 76.149L46.2899 76.195L46.1799 76.242L46.0709 76.289L45.9609 76.336L45.8519 76.383L45.7429 76.43L45.6329 76.477L45.5229 76.524L45.4149 76.57L45.3049 76.617L45.1959 76.664L45.0859 76.711L44.9769 76.758L44.8679 76.805L44.7579 76.852L44.6479 76.899L44.5399 76.945L44.4299 77L44.3209 77.063L44.2109 77.11L44.1019 77.14L43.9929 77.18L43.8829 77.227L43.7729 77.274L43.6649 77.32L43.5549 77.375L43.4459 77.437L43.3359 77.492L43.2269 77.539L43.1179 77.586L43.0079 77.633L42.8979 77.688L42.7899 77.75L42.6799 77.813L42.5709 77.875L42.4609 77.93L42.3519 77.977L42.2429 78.024L42.1329 78.07L42.0229 78.125L41.9149 78.188L41.8049 78.25L41.6959 78.312L41.5859 78.367L41.4769 78.414L41.3679 78.469L41.2579 78.531L41.1479 78.586L41.0399 78.633L40.9299 78.68L40.8209 78.726L40.7109 78.781L40.6019 78.844L40.4929 78.906L40.3829 78.969L40.2729 79.024L40.1649 79.07L40.0549 79.125L39.9459 79.188L39.8359 79.25L39.7269 79.313L39.6179 79.375L39.5079 79.437L39.3979 79.492L39.2899 79.539L39.1799 79.594L39.0709 79.656L38.9609 79.719L38.8519 79.781L38.7429 79.851L38.6329 79.93L38.5229 80L38.4149 80.062L38.3049 80.117L38.1959 80.164L38.0859 80.219L37.9769 80.281L37.8679 80.344L37.7579 80.406L37.6479 80.469L37.5399 80.531L37.4299 80.601L37.3209 80.68L37.2109 80.742L37.1019 80.789L36.9929 80.844L36.8829 80.906L36.7729 80.976L36.6649 81.055L36.5549 81.125L36.4459 81.188L36.3359 81.25L36.2269 81.313L36.1179 81.375L36.0079 81.438L35.8979 81.5L35.7899 81.563L35.6799 81.633L35.5709 81.711L35.4609 81.789L35.3519 81.868L35.2429 81.938L35.1329 82L35.0229 82.07L34.9149 82.148L34.8049 82.226L34.6959 82.305L34.5859 82.375L34.4769 82.438L34.3679 82.508L34.2579 82.586L34.1479 82.664L34.0399 82.743L33.9299 82.813L33.8209 82.875L33.7109 82.945L33.6019 83.023L33.4929 83.101L33.3829 83.18L33.2729 83.258L33.1649 83.336L33.0549 83.406L32.9459 83.469L32.8359 83.539L32.7269 83.617L32.6179 83.695L32.5079 83.774L32.3979 83.844L32.2899 83.906L32.1799 83.969L32.0709 84.031L31.9609 84.07L31.8519 84.086L31.7429 84.094H31.6329L31.5229 84.086L31.4149 84.071L31.3049 84.031L31.1959 83.969L31.0859 83.891L30.9769 83.796L30.8979 83.696L30.8519 83.586L30.8049 83.477L30.7579 83.368L30.7339 83.258V82.93L30.7579 82.821L30.8049 82.711L30.8749 82.602L30.9689 82.492L31.0699 82.391L31.1789 82.297L31.2889 82.219L31.3979 82.156L31.5069 82.086L31.6169 82.008L31.7269 81.93L31.8349 81.852L31.9449 81.774L32.0539 81.695L32.1639 81.617L32.2729 81.539L32.3819 81.469L32.4919 81.406L32.6019 81.336L32.7099 81.258L32.8199 81.172L32.9289 81.078L33.0389 81L33.1479 80.937L33.2569 80.867L33.3669 80.789L33.4769 80.719L33.5849 80.656L33.6949 80.586L33.8039 80.508L33.9139 80.43L34.0229 80.351L34.1319 80.281L34.2419 80.219L34.3519 80.149L34.4599 80.07L34.5699 80.008L34.6789 79.961L34.7889 79.891L34.8979 79.797L35.0069 79.719L35.1169 79.656L35.2269 79.586L35.3349 79.508L35.4449 79.438L35.5539 79.375L35.6639 79.313L35.7729 79.25L35.8819 79.188L35.9919 79.125L36.1019 79.063L36.2099 79L36.3199 78.938L36.4289 78.875L36.5389 78.813L36.6479 78.75L36.7569 78.688L36.8669 78.625L36.9769 78.563L37.0849 78.5L37.1949 78.438L37.3039 78.375L37.4139 78.313L37.5229 78.25L37.6319 78.188L37.7419 78.125L37.8519 78.063L37.9599 78L38.0699 77.945L38.1789 77.899L38.2889 77.844L38.3979 77.781L38.5069 77.719L38.6169 77.656L38.7269 77.594L38.8349 77.531L38.9449 77.469L39.0539 77.406L39.1639 77.351L39.2729 77.305L39.3819 77.25L39.4919 77.188L39.6019 77.125L39.7099 77.063L39.8199 77.008L39.9289 76.961L40.0389 76.906L40.1479 76.844L40.2569 76.789L40.3669 76.742L40.4769 76.688L40.5849 76.625L40.6949 76.563L40.8039 76.5L40.9139 76.445L41.0229 76.399L41.1319 76.344L41.2419 76.281L41.3519 76.226L41.4599 76.18L41.5699 76.133L41.6789 76.086L41.7889 76.039L41.8979 75.992L42.0069 75.938L42.1169 75.875L42.2269 75.82L42.3349 75.774L42.4449 75.719L42.5539 75.656L42.6639 75.601L42.7729 75.555L42.8819 75.508L42.9919 75.461L43.1019 75.414L43.2099 75.367L43.3199 75.32L43.4289 75.273L43.5389 75.226L43.6479 75.18L43.7569 75.133L43.8669 75.086L43.9769 75.039L44.0849 74.992L44.1949 74.945L44.3039 74.899L44.4139 74.844L44.5229 74.781L44.6319 74.726L44.7419 74.68L44.8519 74.633L44.9599 74.586L45.0699 74.546L45.1789 74.516L45.2889 74.469L45.3979 74.406L45.5069 74.359L45.6169 74.329L45.7269 74.289L45.8349 74.242L45.9449 74.195L46.0539 74.149L46.1639 74.109L46.2729 74.079L46.3819 74.039L46.4919 73.992L46.6019 73.945L46.7099 73.898L46.8199 73.851L46.9289 73.805L47.0389 73.758L47.1479 73.711L47.2569 73.671L47.3669 73.641L47.4769 73.601L47.5849 73.555L47.6949 73.508L47.8039 73.461L47.9139 73.421L48.0229 73.391L48.1319 73.351L48.2419 73.305L48.3519 73.265L48.4599 73.235L48.5699 73.195L48.6789 73.149L48.7889 73.109L48.8979 73.078L49.0069 73.046L49.1169 73.016L49.2269 72.976L49.3349 72.93L49.4449 72.89L49.5539 72.86L49.6639 72.82L49.7729 72.773L49.8819 72.726L49.9919 72.68L50.1019 72.64L50.2099 72.61L50.3199 72.57L50.4289 72.523L50.5389 72.476L50.6479 72.43L50.7569 72.391L50.8669 72.359L50.9769 72.328L51.0849 72.297L51.1949 72.265L51.3039 72.235L51.4139 72.195L51.5229 72.148L51.6319 72.117L51.7419 72.102L51.8519 72.07L51.9599 72.023L52.0699 71.992L52.1789 71.976L52.2889 71.953L52.3979 71.921L52.5069 71.891L52.6169 71.859L52.7269 71.828L52.8349 71.797L52.9449 71.765L53.0539 71.735L53.1639 71.695L53.2729 71.648L53.3819 71.617L53.4919 71.601L53.6019 71.578L53.7099 71.547L53.8199 71.524L53.9289 71.508L54.0389 71.492L54.1479 71.477L54.2569 71.461L54.3669 71.445L54.4769 71.43L54.5849 71.414L54.6949 71.399L54.8039 71.383L54.9139 71.367L55.0229 71.352L55.1319 71.344H55.2419L55.3519 71.336L55.4599 71.32ZM77.2659 66.367L77.3279 66.352L77.3669 66.344H77.8589L77.9219 66.351L77.9839 66.367L78.0469 66.383L78.1089 66.399L78.1719 66.422L78.2339 66.453L78.2969 66.492L78.3589 66.539L78.4139 66.594L78.4609 66.656L78.5079 66.719L78.5539 66.781L78.5939 66.844L78.6249 66.906L78.6479 66.969L78.6639 67.031L78.6799 67.094L78.6949 67.156L78.7029 67.219V67.281L78.6949 67.344L78.6799 67.406L78.6639 67.469L78.6479 67.531L78.6329 67.594L78.6169 67.656L78.5939 67.719L78.5619 67.781L78.5309 67.844L78.4999 67.906L78.4529 67.961L78.3909 68.008L78.3279 68.055L78.2659 68.101L78.2029 68.141L78.1409 68.172L78.0779 68.195L78.0159 68.211L77.9529 68.226L77.8909 68.242L77.8279 68.258L77.7659 68.273L77.7029 68.289L77.6409 68.305L77.5779 68.32L77.5159 68.336L77.4529 68.344H77.2659L77.2029 68.351L77.1409 68.367L77.0779 68.375H77.0159L76.9529 68.383L76.8909 68.398L76.8279 68.414L76.7659 68.43L76.7029 68.438H76.6409L76.5779 68.445L76.5159 68.461L76.4529 68.469H76.3909L76.3279 68.476L76.2659 68.492L76.2029 68.5H76.1409L76.0779 68.508L76.0159 68.523L75.9529 68.539L75.8909 68.555L75.8279 68.563H75.7659L75.7029 68.57L75.6409 68.586L75.5779 68.594H75.5159L75.4529 68.601L75.3909 68.617L75.3279 68.625H75.2659L75.2029 68.633L75.1409 68.648L75.0779 68.664L75.0159 68.68L74.9529 68.688H74.8909L74.8279 68.695L74.7659 68.711L74.7029 68.719H74.6409L74.5779 68.726L74.5159 68.742L74.4529 68.75H74.3909L74.3279 68.758L74.2659 68.773L74.2029 68.789L74.1409 68.805L74.0779 68.82L74.0159 68.836L73.9529 68.844H73.8909L73.8279 68.851L73.7659 68.867L73.7029 68.875H73.6409L73.5779 68.891L73.5159 68.922L73.4529 68.938H73.3909L73.3279 68.945L73.2659 68.961L73.2029 68.969H73.1409L73.0779 68.976L73.0159 68.992L72.9529 69.008L72.8909 69.023L72.8279 69.039L72.7659 69.055L72.7029 69.07L72.6409 69.086L72.5779 69.094H72.5159L72.4529 69.101L72.3909 69.117L72.3279 69.125H72.2659L72.2029 69.133L72.1409 69.148L72.0779 69.164L72.0159 69.18L71.9529 69.195L71.8909 69.211L71.8279 69.219H71.7659L71.7029 69.226L71.6409 69.242L71.5779 69.258L71.5159 69.273L71.4529 69.289L71.3909 69.305L71.3279 69.313H71.2659L71.2029 69.32L71.1409 69.336L71.0779 69.344H71.0159L70.9529 69.351L70.8909 69.367L70.8279 69.383L70.7659 69.398L70.7029 69.414L70.6409 69.43L70.5779 69.445L70.5159 69.461L70.4529 69.469H70.3909L70.3279 69.476L70.2659 69.492L70.2029 69.5H70.1409L70.0779 69.508L70.0159 69.523L69.9529 69.539L69.8909 69.555L69.8279 69.57L69.7659 69.586L69.7029 69.594H69.6409L69.5779 69.601L69.5159 69.617L69.4529 69.633L69.3909 69.648L69.3279 69.664L69.2659 69.68L69.2029 69.695L69.1409 69.711L69.0779 69.719H69.0159L68.9529 69.726L68.8909 69.742L68.8279 69.758L68.7659 69.773L68.7029 69.789L68.6409 69.805L68.5779 69.813H68.5159L68.4529 69.82L68.3909 69.836L68.3279 69.851L68.2659 69.867L68.2029 69.891L68.1409 69.922L68.0779 69.945L68.0159 69.961L67.9529 69.969H67.8909L67.8279 69.976L67.7659 69.992L67.7029 70.008L67.6409 70.023L67.5779 70.039L67.5159 70.055L67.4529 70.07L67.3909 70.086L67.3279 70.094H67.2659L67.2029 70.101L67.1409 70.117L67.0779 70.133L67.0159 70.148L66.9529 70.164L66.8909 70.18L66.8279 70.195L66.7659 70.211L66.7029 70.219H66.6409L66.5779 70.226L66.5159 70.242L66.4529 70.258L66.3909 70.273L66.3279 70.289L66.2659 70.305L66.2029 70.32L66.1409 70.336L66.0779 70.344H66.0159L65.9529 70.351L65.8909 70.367L65.8279 70.375H65.7659L65.7029 70.391L65.6409 70.422L65.5779 70.445L65.5159 70.461L65.4529 70.469H65.3909L65.3279 70.476L65.2659 70.492L65.2029 70.508L65.1409 70.524L65.0779 70.547L65.0159 70.578L64.9919 70.625L65.0069 70.688L65.0469 70.734L65.1089 70.766L65.1719 70.797L65.2339 70.828L65.2969 70.86L65.3589 70.89L65.4219 70.93L65.4839 70.976L65.5469 71.016L65.6089 71.046L65.6719 71.086L65.7339 71.132L65.7969 71.172L65.8589 71.203L65.9219 71.235L65.9839 71.265L66.0469 71.305L66.1089 71.351L66.1719 71.391L66.2339 71.421L66.2969 71.461L66.3589 71.508L66.4219 71.555L66.4839 71.601L66.5469 71.641L66.6089 71.671L66.6719 71.711L66.7339 71.758L66.7969 71.805L66.8589 71.852L66.9219 71.899L66.9839 71.945L67.0469 71.992L67.1089 72.039L67.1719 72.079L67.2339 72.109L67.2969 72.149L67.3589 72.195L67.4219 72.242L67.4839 72.289L67.5469 72.336L67.6089 72.383L67.6719 72.43L67.7339 72.476L67.7969 72.531L67.8589 72.594L67.9059 72.656L67.9379 72.719L67.9689 72.781L67.9999 72.844L68.0229 72.906L68.0389 72.969L68.0469 73.031V73.219L68.0389 73.281L68.0229 73.344L68.0079 73.406L67.9919 73.469L67.9769 73.531L67.9609 73.594L67.9369 73.656L67.9069 73.719L67.8669 73.781L67.8199 73.844L67.7729 73.899L67.7269 73.945L67.6719 73.992L67.6089 74.039L67.5469 74.079L67.4839 74.109L67.4219 74.133L67.3589 74.148L67.2969 74.164L67.2339 74.18L67.1719 74.187H67.1089L67.0469 74.18L66.9839 74.164L66.9219 74.149L66.8589 74.133L66.7969 74.117L66.7339 74.101L66.6719 74.078L66.6089 74.047L66.5469 74.015L66.4839 73.985L66.4219 73.945L66.3589 73.898L66.2969 73.851L66.2339 73.805L66.1719 73.758L66.1089 73.711L66.0469 73.664L65.9839 73.618L65.9219 73.578L65.8589 73.547L65.7969 73.515L65.7339 73.485L65.6719 73.445L65.6089 73.399L65.5469 73.359L65.4839 73.329L65.4219 73.289L65.3589 73.243L65.2969 73.203L65.2339 73.172L65.1719 73.133L65.1089 73.086L65.0469 73.039L64.9839 72.993L64.9219 72.953L64.8589 72.922L64.7969 72.883L64.7339 72.836L64.6719 72.796L64.6089 72.766L64.5469 72.734L64.4839 72.704L64.4219 72.664L64.3589 72.618L64.2969 72.578L64.2339 72.547L64.1719 72.515L64.1089 72.485L64.0469 72.445L63.9839 72.399L63.9219 72.359L63.8589 72.328L63.7969 72.296L63.7339 72.266L63.6719 72.234L63.6089 72.203L63.5469 72.171L63.4839 72.141L63.4219 72.109L63.3589 72.078L63.2969 72.046L63.2339 72.016L63.1719 71.976L63.1089 71.93L63.0469 71.89L62.9839 71.86L62.9219 71.82L62.8589 71.774L62.7969 71.734L62.7339 71.703L62.6719 71.671L62.6089 71.641L62.5469 71.609L62.4839 71.578L62.4219 71.546L62.3589 71.516L62.2969 71.484L62.2339 71.453L62.1719 71.421L62.1089 71.391L62.0469 71.367L61.9839 71.351L61.9219 71.328L61.8589 71.297L61.7969 71.265L61.7339 71.235L61.6719 71.195L61.6089 71.149L61.5469 71.109L61.4839 71.079L61.4219 71.039L61.3589 70.992L61.2969 70.945L61.2339 70.899L61.1799 70.844L61.1329 70.781L61.0859 70.719L61.0389 70.656L61.0079 70.594L60.9919 70.531L60.9679 70.469L60.9379 70.406L60.9219 70.344V70.156L60.9299 70.094L60.9449 70.031L60.9609 69.969L60.9769 69.906L60.9999 69.844L61.0309 69.781L61.0699 69.719L61.1169 69.656L61.1639 69.594L61.2109 69.531L61.2659 69.476L61.3279 69.43L61.3909 69.391L61.4529 69.359L61.5159 69.328L61.5779 69.297L61.6409 69.274L61.7029 69.258L61.7659 69.242L61.8279 69.227L61.8909 69.219H61.9529L62.0159 69.203L62.0779 69.172L62.1409 69.149L62.2029 69.133L62.2659 69.125H62.3279L62.3909 69.117L62.4529 69.102L62.5159 69.086L62.5779 69.07L62.6409 69.055L62.7029 69.039L62.7659 69.024L62.8279 69.008L62.8909 69H62.9529L63.0159 68.992L63.0779 68.976L63.1409 68.953L63.2029 68.922L63.2659 68.899L63.3279 68.883L63.3909 68.875H63.4529L63.5159 68.867L63.5779 68.852L63.6409 68.836L63.7029 68.82L63.7659 68.805L63.8279 68.789L63.8909 68.774L63.9529 68.758L64.0159 68.75H64.0779L64.1409 68.742L64.2029 68.727L64.2659 68.711L64.3279 68.695L64.3909 68.68L64.4529 68.664L64.5159 68.649L64.5779 68.633L64.6409 68.617L64.7029 68.602L64.7659 68.586L64.8279 68.57L64.8909 68.555L64.9529 68.539L65.0159 68.524L65.0779 68.508L65.1409 68.5H65.2029L65.2659 68.492L65.3279 68.477L65.3909 68.461L65.4529 68.445L65.5159 68.43L65.5779 68.414L65.6409 68.399L65.7029 68.383L65.7659 68.367L65.8279 68.352L65.8909 68.344H65.9529L66.0159 68.336L66.0779 68.32L66.1409 68.305L66.2029 68.289L66.2659 68.274L66.3279 68.258L66.3909 68.25H66.4529L66.5159 68.242L66.5779 68.227L66.6409 68.211L66.7029 68.195L66.7659 68.18L66.8279 68.164L66.8909 68.149L66.9529 68.133L67.0159 68.125H67.0779L67.1409 68.117L67.2029 68.102L67.2659 68.086L67.3279 68.07L67.3909 68.055L67.4529 68.039L67.5159 68.024L67.5779 68.008L67.6409 68H67.7029L67.7659 67.992L67.8279 67.977L67.8909 67.961L67.9529 67.945L68.0159 67.93L68.0779 67.914L68.1409 67.899L68.2029 67.883L68.2659 67.875H68.3279L68.3909 67.867L68.4529 67.852L68.5159 67.836L68.5779 67.82L68.6409 67.805L68.7029 67.789L68.7659 67.774L68.8279 67.758L68.8909 67.75H68.9529L69.0159 67.742L69.0779 67.727L69.1409 67.711L69.2029 67.695L69.2659 67.68L69.3279 67.664L69.3909 67.649L69.4529 67.633L69.5159 67.625H69.5779L69.6409 67.617L69.7029 67.602L69.7659 67.586L69.8279 67.57L69.8909 67.555L69.9529 67.539L70.0159 67.524L70.0779 67.508L70.1409 67.5H70.2029L70.2659 67.492L70.3279 67.477L70.3909 67.469H70.4529L70.5159 67.461L70.5779 67.445L70.6409 67.43L70.7029 67.414L70.7659 67.399L70.8279 67.383L70.8909 67.375H70.9529L71.0159 67.367L71.0779 67.352L71.1409 67.344H71.2029L71.2659 67.336L71.3279 67.32L71.3909 67.305L71.4529 67.289L71.5159 67.274L71.5779 67.258L71.6409 67.25H71.7029L71.7659 67.242L71.8279 67.227L71.8909 67.211L71.9529 67.195L72.0159 67.18L72.0779 67.164L72.1409 67.156H72.2029L72.2659 67.149L72.3279 67.133L72.3909 67.125H72.4529L72.5159 67.117L72.5779 67.102L72.6409 67.086L72.7029 67.07L72.7659 67.055L72.8279 67.039L72.8909 67.024L72.9529 67.008L73.0159 67H73.0779L73.1409 66.992L73.2029 66.977L73.2659 66.969H73.3279L73.3909 66.961L73.4529 66.945L73.5159 66.93L73.5779 66.914L73.6409 66.899L73.7029 66.883L73.7659 66.875H73.8279L73.8909 66.867L73.9529 66.852L74.0159 66.844H74.0779L74.1409 66.836L74.2029 66.82L74.2659 66.805L74.3279 66.789L74.3909 66.774L74.4529 66.758L74.5159 66.75H74.5779L74.6409 66.742L74.7029 66.727L74.7659 66.719H74.8279L74.8909 66.711L74.9529 66.695L75.0159 66.68L75.0779 66.664L75.1409 66.649L75.2029 66.633L75.2659 66.625H75.3279L75.3909 66.617L75.4529 66.602L75.5159 66.594H75.5779L75.6409 66.586L75.7029 66.57L75.7659 66.562H75.8279L75.8909 66.555L75.9529 66.539L76.0159 66.524L76.0779 66.508L76.1409 66.5H76.3279L76.3909 66.492L76.4529 66.477L76.5159 66.469H76.5779L76.6409 66.461L76.7029 66.445L76.7659 66.43L76.8279 66.414L76.8909 66.406H76.9529L77.0159 66.399L77.0779 66.383L77.1409 66.375H77.2029L77.2659 66.367ZM73.6639 57.149L73.7109 57.132L73.7419 57.125H73.9299L73.9769 57.133L74.0229 57.148L74.0699 57.164L74.1169 57.18L74.1639 57.195L74.2109 57.211L74.2579 57.227L74.3049 57.242L74.3519 57.266L74.3979 57.296L74.4449 57.336L74.4919 57.383L74.5309 57.43L74.5629 57.476L74.5939 57.523L74.6249 57.57L74.6559 57.617L74.6879 57.664L74.7109 57.711L74.7269 57.758L74.7419 57.805L74.7579 57.851L74.7729 57.898L74.7889 57.945L74.7969 57.992V58.133L74.7889 58.18L74.7729 58.226L74.7659 58.273V58.32L74.7579 58.367L74.7419 58.414L74.7269 58.461L74.7109 58.508L74.6869 58.555L74.6559 58.601L74.6329 58.648L74.6169 58.695L74.5939 58.742L74.5619 58.789L74.5389 58.836L74.5229 58.883L74.4999 58.93L74.4689 58.976L74.4449 59.023L74.4299 59.07L74.4059 59.117L74.3749 59.164L74.3519 59.211L74.3359 59.258L74.3119 59.305L74.2809 59.351L74.2579 59.398L74.2419 59.445L74.2189 59.492L74.1869 59.539L74.1559 59.586L74.1249 59.633L74.1019 59.68L74.0859 59.726L74.0619 59.773L74.0309 59.82L74.0079 59.867L73.9919 59.914L73.9689 59.961L73.9369 60.008L73.9059 60.055L73.8749 60.101L73.8519 60.148L73.8359 60.195L73.8119 60.242L73.7809 60.289L73.7499 60.336L73.7189 60.383L73.6869 60.43L73.6559 60.476L73.6329 60.523L73.6169 60.57L73.5939 60.617L73.5619 60.664L73.5389 60.711L73.5229 60.758L73.4999 60.805L73.4689 60.851L73.4369 60.898L73.4059 60.945L73.3829 60.992L73.3669 61.039L73.3439 61.086L73.3119 61.133L73.2809 61.18L73.2499 61.226L73.2269 61.273L73.2109 61.32L73.1869 61.367L73.1559 61.414L73.1329 61.461L73.1169 61.508L73.0939 61.555L73.0619 61.601L73.0309 61.648L72.9999 61.695L72.9689 61.742L72.9369 61.789L72.9059 61.836L72.8749 61.883L72.8519 61.93L72.8359 61.976L72.8119 62.023L72.7809 62.07L72.7499 62.117L72.7189 62.164L72.6869 62.211L72.6559 62.258L72.6329 62.305L72.6169 62.351L72.5939 62.398L72.5619 62.445L72.5309 62.492L72.4999 62.539L72.4689 62.586L72.4369 62.633L72.4059 62.68L72.3749 62.726L72.3669 62.773L72.3829 62.82L72.4139 62.852L72.4609 62.867H72.5079L72.5549 62.852L72.6019 62.844H72.6479L72.6949 62.836L72.7419 62.82L72.7889 62.805L72.8359 62.789L72.8829 62.781H72.9299L72.9769 62.773L73.0229 62.758L73.0699 62.75H73.2109L73.2579 62.742L73.3049 62.727L73.3519 62.719H73.3979L73.4449 62.711L73.4919 62.695L73.5389 62.688H73.5859L73.6329 62.68L73.6799 62.664L73.7269 62.656H73.7729L73.8199 62.648L73.8669 62.633L73.9139 62.625H74.0549L74.1019 62.617L74.1479 62.602L74.1949 62.594H74.2419L74.2889 62.586L74.3359 62.57L74.3829 62.563H74.4299L74.4769 62.555L74.5229 62.539L74.5699 62.531H74.6169L74.6639 62.523L74.7109 62.508L74.7579 62.5H74.8979L74.9449 62.492L74.9919 62.477L75.0389 62.469H75.0859L75.1329 62.461L75.1799 62.445L75.2269 62.438H75.2729L75.3199 62.43L75.3669 62.414L75.4139 62.406H75.4609L75.5079 62.398L75.5549 62.383L75.6019 62.375H75.9299L75.9769 62.367L76.0229 62.352L76.0699 62.344H76.2109L76.2579 62.336L76.3049 62.32L76.3519 62.305L76.3979 62.289L76.4449 62.281H76.5859L76.6329 62.273L76.6799 62.258L76.7269 62.25H76.9609L77.0079 62.242L77.0549 62.227L77.1019 62.219H77.3359L77.3829 62.211L77.4299 62.195L77.4769 62.188H77.5229L77.5699 62.18L77.6169 62.164L77.6639 62.156H77.8049L77.8519 62.148L77.8979 62.133L77.9449 62.125H78.2729L78.3199 62.117L78.3669 62.102L78.4139 62.094H78.5549L78.6019 62.086L78.6479 62.07L78.6949 62.063H78.7419L78.7889 62.055L78.8359 62.039L78.8829 62.031H79.1169L79.1639 62.023L79.2109 62.008L79.2579 62H79.9609L80.0079 62.008L80.0549 62.023L80.1019 62.039L80.1479 62.055L80.1949 62.079L80.2419 62.109L80.2889 62.133L80.3359 62.148L80.3829 62.18L80.4299 62.226L80.4769 62.273L80.5229 62.32L80.5629 62.367L80.5939 62.414L80.6169 62.461L80.6329 62.508L80.6559 62.555L80.6879 62.601L80.7109 62.648L80.7269 62.695L80.7339 62.742V63.164L80.7269 63.211L80.7109 63.258L80.6869 63.305L80.6559 63.352L80.6329 63.399L80.6169 63.445L80.5929 63.492L80.5629 63.539L80.5229 63.586L80.4769 63.633L80.4299 63.68L80.3829 63.726L80.3359 63.766L80.2889 63.797L80.2419 63.82L80.1949 63.836L80.1479 63.844H80.1019L80.0549 63.851L80.0079 63.867L79.9609 63.883L79.9139 63.898L79.8669 63.906H79.8199L79.7729 63.914L79.7269 63.93L79.6799 63.938H79.6329L79.5859 63.945L79.5389 63.961L79.4919 63.969H79.3519L79.3049 63.976L79.2579 63.992L79.2109 64H79.0699L79.0229 64.008L78.9769 64.023L78.9299 64.031H78.7889L78.7419 64.039L78.6949 64.055L78.6479 64.063H78.5079L78.4609 64.07L78.4139 64.086L78.3669 64.094H78.1329L78.0859 64.101L78.0389 64.117L77.9919 64.125H77.8519L77.8049 64.133L77.7579 64.148L77.7109 64.156H77.6639L77.6169 64.164L77.5699 64.18L77.5229 64.188H77.4769L77.4299 64.195L77.3829 64.211L77.3359 64.219H77.1019L77.0549 64.226L77.0079 64.242L76.9609 64.25H76.8199L76.7729 64.258L76.7269 64.273L76.6799 64.289L76.6329 64.305L76.5859 64.313H76.5389L76.4919 64.32L76.4449 64.336L76.3979 64.344H76.0699L76.0229 64.351L75.9769 64.367L75.9299 64.375H75.7889L75.7419 64.383L75.6949 64.398L75.6479 64.414L75.6019 64.43L75.5549 64.438H75.4139L75.3669 64.445L75.3199 64.461L75.2729 64.469H75.0389L74.9919 64.476L74.9449 64.492L74.8979 64.5H74.8519L74.8049 64.508L74.7579 64.523L74.7109 64.531H74.6639L74.6169 64.539L74.5699 64.555L74.5229 64.563H74.4769L74.4299 64.57L74.3829 64.586L74.3359 64.594H74.1019L74.0549 64.601L74.0079 64.617L73.9609 64.633L73.9139 64.648L73.8669 64.656H73.8199L73.7729 64.664L73.7269 64.68L73.6799 64.688H73.6329L73.5859 64.695L73.5389 64.711L73.4919 64.719H73.3519L73.3049 64.726L73.2579 64.742L73.2109 64.75H73.0699L73.0229 64.758L72.9769 64.773L72.9299 64.789L72.8829 64.805L72.8359 64.813H72.7889L72.7419 64.82L72.6949 64.836L72.6479 64.844H72.5079L72.4609 64.851L72.4139 64.867L72.3669 64.875H72.2269L72.1799 64.883L72.1329 64.898L72.0859 64.914L72.0389 64.93L71.9919 64.938H71.8519L71.8049 64.945L71.7579 64.961L71.7109 64.969H71.5699L71.5229 64.976L71.4769 64.992L71.4299 65H71.3829L71.3359 65.008L71.2889 65.023L71.2419 65.039L71.1949 65.055L71.1479 65.063H71.1019L71.0549 65.07L71.0079 65.086L70.9609 65.094H70.5389L70.4919 65.101L70.4449 65.117H70.3979L70.3519 65.102L70.3049 65.094H70.1639L70.1169 65.078L70.0699 65.046L70.0229 65.016L69.9769 64.984L69.9299 64.953L69.8829 64.922L69.8359 64.89L69.7889 64.86L69.7419 64.82L69.6959 64.773L69.6559 64.726L69.6249 64.68L69.5939 64.633L69.5619 64.586L69.5389 64.539L69.5229 64.492L69.5079 64.445L69.4919 64.398L69.4839 64.351V64.305L69.4769 64.258L69.4609 64.211L69.4529 64.164V64.117L69.4609 64.07L69.4769 64.023L69.4839 63.976V63.93L69.4919 63.883L69.5079 63.836L69.5229 63.789L69.5389 63.742L69.5629 63.695L69.5939 63.648L69.6169 63.601L69.6329 63.555L69.6479 63.508L69.6639 63.461L69.6879 63.414L69.7189 63.367L69.7499 63.32L69.7809 63.273L69.8129 63.226L69.8439 63.18L69.8749 63.133L69.9059 63.086L69.9379 63.039L69.9689 62.992L69.9919 62.945L70.0079 62.899L70.0309 62.852L70.0629 62.805L70.0939 62.758L70.1249 62.711L70.1559 62.664L70.1879 62.617L70.2189 62.57L70.2499 62.524L70.2729 62.477L70.2889 62.43L70.3129 62.383L70.3439 62.336L70.3749 62.289L70.4059 62.242L70.4379 62.195L70.4689 62.149L70.4919 62.102L70.5079 62.055L70.5309 62.008L70.5629 61.961L70.5939 61.914L70.6249 61.867L70.6479 61.82L70.6639 61.774L70.6879 61.727L70.7189 61.68L70.7499 61.633L70.7809 61.586L70.8129 61.539L70.8439 61.492L70.8669 61.445L70.8829 61.399L70.9059 61.352L70.9379 61.305L70.9689 61.258L70.9999 61.211L71.0229 61.164L71.0389 61.117L71.0629 61.07L71.0939 61.024L71.1249 60.977L71.1559 60.93L71.1799 60.883L71.1949 60.836L71.2189 60.789L71.2499 60.742L71.2809 60.695L71.3129 60.649L71.3359 60.602L71.3519 60.555L71.3749 60.508L71.4059 60.461L71.4379 60.414L71.4689 60.367L71.4999 60.32L71.5309 60.274L71.5629 60.227L71.5939 60.18L71.6169 60.133L71.6329 60.086L71.6559 60.039L71.6879 59.992L71.7189 59.945L71.7499 59.899L71.7809 59.852L71.8129 59.805L71.8439 59.758L71.8749 59.711L71.8979 59.664L71.9139 59.617L71.9379 59.57L71.9689 59.524L71.9999 59.477L72.0309 59.43L72.0549 59.383L72.0699 59.336L72.0939 59.289L72.1249 59.242L72.1479 59.195L72.1639 59.149L72.1879 59.102L72.2189 59.055L72.2499 59.008L72.2809 58.961L72.3049 58.914L72.3199 58.867L72.3439 58.82L72.3749 58.774L72.3979 58.727L72.4139 58.68L72.4379 58.633L72.4689 58.586L72.4999 58.539L72.5309 58.492L72.5549 58.445L72.5699 58.399L72.5939 58.352L72.6249 58.305L72.6479 58.258L72.6649 58.211L72.6949 58.164L72.7419 58.117L72.7809 58.07L72.8129 58.024L72.8359 57.977L72.8519 57.93L72.8749 57.883L72.9059 57.836L72.9379 57.789L72.9689 57.742L72.9919 57.695L73.0079 57.649L73.0319 57.602L73.0619 57.555L73.1019 57.508L73.1479 57.461L73.1949 57.414L73.2419 57.368L73.2889 57.328L73.3359 57.296L73.3829 57.266L73.4299 57.234L73.4769 57.211L73.5229 57.195L73.5699 57.18L73.6169 57.164L73.6639 57.149Z" fill="#421F1F"/>
<path fill-rule="evenodd" clip-rule="evenodd" d="M28.578 14.985L29.266 14.743L29.953 14.54L30.641 14.368L31.328 14.228L32.016 14.118L32.703 14.04L33.07 14H34.172L34.859 14.039L35.547 14.117L36.234 14.211L36.922 14.32L37.609 14.469L38.297 14.656L38.984 14.875L39.672 15.125L40.359 15.422L41.047 15.766L41.734 16.156L42.422 16.594L43.109 17.102L43.797 17.68L44.461 18.305L45.102 18.976L45.656 19.656L46.125 20.344L46.539 21.031L46.899 21.719L47.219 22.406L47.5 23.094L47.75 23.781L47.969 24.469L48.149 25.156L48.289 25.844L48.398 26.531L48.477 27.219L48.531 27.906L48.563 28.594V29.281L48.531 29.969L48.477 30.656L48.399 31.344L48.289 32.031L48.148 32.719L47.984 33.406L47.797 34.094L47.594 34.781L47.375 35.469L47.133 36.156L46.867 36.844L46.625 37.516L46.406 38.172L46.641 38.422L47.328 38.266L48.016 38.079L48.703 37.859L49.391 37.625L50.078 37.375L50.766 37.062L51.453 36.688L52.141 36.25L52.828 35.75L53.5 35.179L54.156 34.539L54.742 33.875L55.258 33.188L55.523 32.5L55.539 31.813L55.601 31.125L55.711 30.438L55.891 29.75L56.141 29.063L56.461 28.375L56.851 27.688L57.351 27.078L57.961 26.547L58.609 26.461L59.297 26.82L59.953 27.328L60.578 27.984L61.086 28.656L61.477 29.344L61.789 30.031L62.023 30.718L62.398 31.258L62.914 31.649L63.516 31.977L64.203 32.242L64.891 32.554L65.578 32.914L66.266 33.359L66.953 33.891L67.609 34.492L68.234 35.164L68.758 35.844L69.179 36.531L69.539 37.219L69.836 37.906L70.117 38.594L70.383 39.281L70.625 39.969L70.844 40.656L71.078 41.344L71.328 42.031L71.406 42.719L71.312 43.406L70.977 44.071L70.398 44.711L69.766 45.234L69.078 45.641L68.391 45.968L67.703 46.218L67.016 46.398L66.328 46.508L65.641 46.57L64.953 46.586L64.266 46.563L63.578 46.5L62.891 46.406L62.203 46.282L61.516 46.102L60.828 45.867L60.141 45.586L59.453 45.258L59.141 45.328L59.203 45.797L59.531 46.352L60.125 46.992L60.766 47.476L61.453 47.804L62.141 47.984L62.828 48.016L63.516 47.992L64.203 47.914L64.891 47.852L65.578 47.805L66.266 47.836L66.953 47.945L67.641 48.164L68.328 48.492L68.961 48.977L69.539 49.617L69.914 50.281L70.086 50.969L70.078 51.656L69.891 52.344L69.523 52.937L68.977 53.437L68.359 53.563L67.672 53.313L66.984 53.156L66.297 53.094L65.609 53.148L64.922 53.32L64.234 53.563L63.547 53.875L62.859 54.172L62.172 54.453L61.484 54.711L60.797 54.945L60.109 55.109L59.422 55.203L58.734 55.242L58.047 55.226L57.359 55.148L56.672 55.008L55.984 54.789L55.297 54.492L54.609 54.117L53.922 53.664L53.242 53.125L52.571 52.5L51.961 51.844L51.414 51.156L50.953 50.469L50.578 49.781L50.242 49.094L49.945 48.406L49.703 47.719L49.516 47.031L49.57 46.383L49.867 45.773L50.336 45.593L50.977 45.843L51.383 46.313L51.555 47L51.789 47.689L52.085 48.376L52.445 49.064L52.867 49.751L53.391 50.431L54.016 51.103L54.672 51.696L55.359 52.212L56.047 52.626L56.734 52.939L57.422 53.149L58.109 53.259L58.797 53.274L59.484 53.196L60.172 53.056L60.859 52.853L61.547 52.603L62.234 52.306L62.922 52.009L63.609 51.712L64.297 51.462L64.984 51.259L65.672 51.142L66.359 51.11L67.047 51.142L67.734 51.235L67.867 50.985L67.445 50.392L66.891 50.009L66.203 49.837L65.516 49.782L64.828 49.845L64.141 49.907L63.453 49.97L62.766 49.993L62.078 49.978L61.391 49.868L60.703 49.665L60.016 49.36L59.328 48.955L58.687 48.415L58.094 47.744L57.601 47.064L57.211 46.376L56.891 45.689L56.641 45.001L56.453 44.314L56.328 43.626L56.234 42.939L56.172 42.251L56.438 41.735L57.032 41.392L57.672 41.509L58.359 42.087L59.047 42.618L59.734 43.103L60.422 43.517L61.109 43.86L61.797 44.126L62.484 44.314L63.172 44.454L63.859 44.548L64.547 44.595H65.234L65.922 44.54L66.609 44.431L67.297 44.251L67.984 44.001L68.609 43.595L69.172 43.032L69.344 42.407L69.125 41.72L68.891 41.032L68.641 40.345L68.383 39.657L68.117 38.97L67.813 38.282L67.469 37.595L67.031 36.907L66.5 36.22L65.891 35.595L65.203 35.032L64.516 34.579L63.828 34.235L63.195 34.032L62.618 33.97L62.188 34.267L61.906 34.923L61.43 35.165L60.758 34.994L60.414 34.564L60.398 33.876L60.375 33.189L60.344 32.501L60.25 31.814L60.094 31.126L59.82 30.439L59.43 29.751L58.953 29.392L58.391 29.36L57.984 29.689L57.734 30.376L57.578 31.064L57.516 31.751L57.562 32.439L57.719 33.126L57.984 33.814L58.359 34.501L58.633 35.189L58.805 35.876L58.563 36.321L57.906 36.525L57.313 36.305L56.781 35.665L56.219 35.548L55.625 35.954L55 36.454L54.344 37.047L53.672 37.587L52.984 38.071L52.297 38.493L51.609 38.853L50.922 39.165L50.234 39.431L49.547 39.672L48.859 39.892L48.172 40.087L47.484 40.259L46.797 40.407L46.109 40.532L45.6221 40.648L45.359 40.7364L45 40.82L44.711 40.872L44.29 40.9342L43.797 41L43.281 41.096L42.672 41.2454L42.258 41.3498L42.109 41.384L42.047 41.4L41.992 41.415L41.945 41.431L41.891 41.446L41.828 41.462L41.766 41.478L41.703 41.493L41.641 41.517L41.578 41.548L41.516 41.571L41.453 41.587L41.391 41.603L41.328 41.618L41.266 41.642L41.203 41.673L41.141 41.696L41.078 41.712L41.016 41.728L40.953 41.743L40.891 41.767L40.828 41.798L40.766 41.83L40.703 41.86L40.641 41.892L40.578 41.923L40.516 41.955L40.453 41.985L40.391 42.009L40.328 42.025L40.266 42.048L40.203 42.079L40.141 42.103L40.078 42.118L40.016 42.142L39.953 42.173L39.891 42.205L39.828 42.235L39.766 42.267L39.703 42.298L39.641 42.33L39.578 42.36L39.516 42.392L39.453 42.423L39.391 42.455L39.328 42.485L39.266 42.517L39.203 42.548L39.141 42.58L39.078 42.61L39.016 42.649L38.953 42.696L38.891 42.735L38.828 42.767L38.766 42.798L38.703 42.829L38.641 42.868L38.578 42.915L38.516 42.955L38.453 42.985L38.391 43.024L38.328 43.071L38.266 43.118L38.203 43.165L38.141 43.205L38.078 43.235L38.016 43.274L37.953 43.321L37.891 43.361L37.828 43.391L37.766 43.431L37.703 43.478L37.641 43.532L37.578 43.595L37.516 43.649L37.453 43.696L37.391 43.743L37.328 43.79L37.266 43.845L37.203 43.907L37.141 43.962L37.078 44.009L37.016 44.056L36.953 44.103L36.891 44.157L36.828 44.22L36.766 44.274L36.703 44.321L36.641 44.376L36.578 44.439L36.516 44.501L36.453 44.564L36.391 44.626L36.328 44.689L36.266 44.751L36.203 44.814L36.141 44.876L36.078 44.939L36.016 45.001L35.953 45.064L35.891 45.126L35.828 45.189L35.773 45.251L35.727 45.314L35.68 45.368L35.633 45.415L35.578 45.47L35.516 45.532L35.461 45.595L35.414 45.657L35.367 45.72L35.32 45.782L35.266 45.845L35.203 45.907L35.148 45.97L35.102 46.032L35.055 46.095L35.008 46.157L34.961 46.22L34.914 46.282L34.867 46.345L34.82 46.407L34.773 46.47L34.727 46.532L34.68 46.595L34.633 46.657L34.593 46.72L34.563 46.782L34.523 46.845L34.477 46.907L34.43 46.97L34.383 47.032L34.343 47.095L34.313 47.157L34.273 47.22L34.227 47.282L34.18 47.345L34.133 47.407L34.093 47.47L34.063 47.532L34.023 47.595L33.977 47.657L33.938 47.72L33.906 47.782L33.875 47.845L33.843 47.907L33.813 47.97L33.781 48.032L33.75 48.095L33.719 48.157L33.68 48.22L33.633 48.282L33.593 48.345L33.563 48.407L33.531 48.47L33.5 48.532L33.477 48.595L33.461 48.657L33.438 48.72L33.406 48.782L33.375 48.845L33.343 48.907L33.313 48.97L33.281 49.032L33.25 49.095L33.218 49.157L33.188 49.22L33.156 49.282L33.133 49.345L33.117 49.407L33.094 49.47L33.062 49.532L33.039 49.595L33.023 49.657L33.008 49.72L32.992 49.782L32.968 49.845L32.938 49.907L32.906 49.97L32.875 50.032L32.852 50.095L32.836 50.157L32.813 50.22L32.781 50.282L32.758 50.345L32.742 50.407L32.727 50.47L32.711 50.532L32.695 50.595L32.68 50.657L32.656 50.72L32.625 50.782L32.609 50.845V50.907L32.594 50.97L32.562 51.032L32.539 51.095L32.523 51.157L32.508 51.22L32.492 51.282L32.484 51.345V51.407L32.477 51.47L32.461 51.532L32.438 51.595L32.406 51.657L32.383 51.72L32.367 51.782L32.359 51.845V51.907L32.352 51.97L32.336 52.032L32.32 52.095L32.305 52.157L32.289 52.22L32.273 52.282L32.258 52.345L32.242 52.407L32.234 52.47V52.532L32.227 52.595L32.211 52.657L32.195 52.72L32.18 52.782L32.164 52.845L32.148 52.907L32.133 52.97L32.117 53.032L32.109 53.095V53.282L32.102 53.345L32.086 53.407L32.07 53.47L32.055 53.532L32.047 53.595V53.657L32.039 53.72L32.023 53.782L32.016 53.845V54.282L32.008 54.345L31.992 54.407L31.984 54.47V55.782L31.992 55.845L32.008 55.907L32.016 55.97V56.157L32.023 56.22L32.039 56.282L32.055 56.345L32.07 56.407L32.078 56.47V56.532L32.086 56.595L32.102 56.657L32.109 56.72V56.907L32.117 56.97L32.133 57.032L32.148 57.095L32.164 57.157L32.18 57.22L32.195 57.282L32.211 57.345L32.227 57.407L32.234 57.47V57.657L32.242 57.72L32.258 57.782L32.273 57.845L32.289 57.907L32.305 57.97L32.32 58.032L32.336 58.095L32.352 58.157L32.359 58.22V58.282L32.367 58.345L32.383 58.407L32.398 58.47L32.414 58.532L32.43 58.595L32.445 58.657L32.461 58.72L32.477 58.782L32.492 58.845L32.508 58.907L32.523 58.97L32.539 59.032L32.562 59.095L32.594 59.157L32.617 59.22L32.633 59.282L32.648 59.345L32.664 59.407L32.68 59.47L32.695 59.532L32.711 59.595L32.727 59.657L32.75 59.72L32.782 59.782L32.812 59.845L32.844 59.907L32.867 59.97L32.883 60.032L32.906 60.095L32.938 60.157L32.961 60.22L32.977 60.282L33 60.345L33.032 60.407L33.062 60.47L33.094 60.532L33.117 60.595L33.133 60.657L33.157 60.72L33.187 60.782L33.219 60.845L33.25 60.907L33.282 60.97L33.312 61.032L33.344 61.095L33.375 61.157L33.407 61.22L33.437 61.282L33.469 61.345L33.5 61.407L33.532 61.47L33.562 61.532L33.594 61.595L33.625 61.657L33.657 61.72L33.687 61.782L33.719 61.845L33.75 61.907L33.789 61.97L33.835 62.032L33.875 62.095L33.906 62.157L33.945 62.22L33.992 62.282L34.032 62.345L34.062 62.407L34.102 62.47L34.148 62.532L34.188 62.595L34.218 62.657L34.258 62.72L34.305 62.782L34.359 62.814H34.421L34.461 62.782L34.477 62.72V62.657L34.461 62.595L34.453 62.532V62.47L34.445 62.407L34.43 62.345L34.422 62.282V61.845L34.414 61.782L34.398 61.72L34.391 61.657V59.095L34.398 59.032L34.414 58.97L34.422 58.907V58.595L34.43 58.532L34.445 58.47L34.461 58.407L34.477 58.345L34.484 58.282V58.22L34.492 58.157L34.508 58.095L34.516 58.032V57.97L34.523 57.907L34.539 57.845L34.547 57.782V57.72L34.555 57.657L34.57 57.595L34.586 57.532L34.602 57.47L34.609 57.407V57.345L34.617 57.282L34.633 57.22L34.641 57.157V57.095L34.648 57.032L34.664 56.97L34.68 56.907L34.695 56.845L34.711 56.782L34.727 56.72L34.742 56.657L34.758 56.595L34.766 56.532V56.47L34.773 56.407L34.789 56.345L34.805 56.282L34.82 56.22L34.836 56.157L34.852 56.095L34.867 56.032L34.883 55.97L34.898 55.907L34.914 55.845L34.93 55.782L34.945 55.72L34.961 55.657L34.977 55.595L34.992 55.532L35.008 55.47L35.023 55.407L35.039 55.345L35.062 55.282L35.094 55.22L35.117 55.157L35.133 55.095L35.148 55.032L35.164 54.97L35.18 54.907L35.195 54.845L35.211 54.782L35.227 54.72L35.242 54.657L35.258 54.595L35.281 54.532L35.313 54.47L35.336 54.407L35.352 54.345L35.367 54.282L35.383 54.22L35.398 54.157L35.414 54.095L35.437 54.032L35.469 53.97L35.492 53.907L35.508 53.845L35.531 53.782L35.563 53.72L35.586 53.657L35.602 53.595L35.625 53.532L35.656 53.47L35.68 53.407L35.695 53.345L35.719 53.282L35.75 53.22L35.773 53.157L35.789 53.095L35.812 53.032L35.844 52.97L36.0417 52.688L36.328 52.345L36.766 51.907L37.391 51.345L38.203 50.782L38.891 50.407L39.4199 50.22L39.859 50.032L40.484 49.782L41 49.595L41.922 49.399L42.609 49.259L43.297 49.172L43.984 49.142L44.672 49.157L45.359 49.22L46.047 49.345L46.734 49.532L47.422 49.774L48.109 50.071L48.797 50.454L49.484 50.923L50.149 51.478L50.789 52.118L51.336 52.782L51.789 53.47L52.172 54.157L52.484 54.845L52.727 55.532L52.898 56.22L53.023 56.907L53.102 57.595L53.125 58.282L53.094 58.97L53.007 59.657L52.867 60.345L52.695 61.032L52.492 61.72L52.328 62.353L52.204 62.931L52.484 63.157L53.172 63.032L53.859 62.97H54.547L55.234 63.064L55.922 63.251L56.586 63.634L57.227 64.212L57.813 64.665L58.343 64.993L58.953 65.087L59.641 64.946L60.328 64.805L61.016 64.665L61.703 64.509L62.391 64.337L63.078 64.118L63.766 63.853L64.453 63.501L65.141 63.064L65.828 62.556L66.516 61.978L67.172 61.345L67.797 60.657L68.359 59.97L68.859 59.282L69.328 58.595L69.766 57.907L70.18 57.22L70.57 56.532L71.109 56.189H71.797L72.164 56.532L72.211 57.22L72.031 57.907L71.625 58.595L71.21 59.282L70.79 59.97L70.32 60.657L69.805 61.345L69.226 62.032L68.586 62.72L67.922 63.36L67.234 63.954L66.547 64.477L65.859 64.931L65.172 65.329L64.484 65.672L63.797 65.962L63.109 66.196L62.422 66.384L61.734 66.525L61.047 66.665L60.359 66.806L59.672 66.947L58.984 67.087L58.297 67.22L57.609 67.345L56.922 67.478L56.234 67.619L55.547 67.759L54.859 67.9L54.172 68.04L53.484 68.181L52.797 68.313L52.109 68.439L51.422 68.572L50.734 68.712L50.047 68.853L49.359 68.994L48.672 69.134L47.984 69.275L47.297 69.415L46.609 69.556L45.922 69.704L45.234 69.86L44.547 70.009L43.859 70.15L43.172 70.29L42.484 70.431L41.797 70.587L41.109 70.759L40.422 70.923L39.734 71.079L39.047 71.235L38.359 71.392L37.672 71.564L36.984 71.751L36.297 71.931L35.609 72.102L34.922 72.282L34.234 72.47L33.547 72.665L32.859 72.868L32.172 73.064L31.484 73.251L30.797 73.439L30.109 73.626L29.422 73.837L28.734 74.071L28.047 74.29L27.359 74.494L26.672 74.704L25.984 74.922L25.297 75.142L24.609 75.36L23.922 75.595L23.234 75.845L22.547 76.095L21.859 76.345L21.172 76.47H20.484L20.094 76.134L20 75.462L20.289 74.954L20.961 74.611L21.641 74.321L22.328 74.087L23.016 73.845L23.703 73.595L24.391 73.36L25.078 73.142L25.766 72.923L26.453 72.704L27.141 72.486L27.828 72.266L28.516 72.056L29.203 71.853L29.891 71.65L30.578 71.446L31.266 71.251L31.953 71.064L32.641 70.876L33.329 70.689L33.969 70.477L34.563 70.243L34.516 70.048L33.828 69.892L33.141 69.72L32.453 69.532L31.766 69.321L31.078 69.087L30.391 68.821L29.703 68.524L29.016 68.18L28.328 67.79L27.641 67.36L26.953 66.892L26.266 66.384L25.578 65.837L24.906 65.243L24.25 64.602L23.633 63.939L23.055 63.251L22.531 62.564L22.063 61.876L21.625 61.189L21.219 60.501L20.859 59.814L20.546 59.126L20.266 58.439L20.016 57.751L19.789 57.064L19.586 56.376L19.422 55.689L19.297 55.001L19.187 54.314L19.094 53.626L19.031 52.939L19 52.251V51.564L19.031 50.876L19.086 50.189L19.164 49.501L19.266 48.814L19.391 48.126L19.539 47.439L19.711 46.751L19.914 46.064L20.148 45.376L20.398 44.689L20.664 44.001L20.969 43.314L21.312 42.626L21.672 41.939L22.047 41.251L22.453 40.564L22.891 39.876L23.344 39.189L23.812 38.501L24.297 37.814L24.797 37.126L25.305 36.439L25.82 35.751L26.328 35.064L26.828 34.376L27.297 33.689L27.735 33.001L28.125 32.314L28.469 31.626L28.742 30.939L28.945 30.251L29.055 29.564L29.07 28.876L28.945 28.189L28.68 27.501L28.226 26.868L27.586 26.29L26.922 25.884L26.234 25.649L25.547 25.564L24.859 25.626L24.172 25.821L23.485 26.149L22.805 26.626L22.133 27.251L21.461 27.672L20.789 27.892L20.313 27.673L20.031 27.017L19.945 26.345L20.055 25.657L20.188 24.97L20.343 24.282L20.523 23.595L20.727 22.907L20.992 22.22L21.32 21.532L21.703 20.845L22.141 20.157L22.633 19.47L23.179 18.782L23.789 18.126L24.461 17.501L25.141 16.938L25.828 16.438L26.516 15.993L27.203 15.603L27.891 15.267L28.578 14.985ZM34.203 15.985L33.891 15.978L33.578 15.993L33.391 16H33.328L33.141 16.016L32.828 16.047L32.516 16.079L32.203 16.109L31.891 16.148L31.578 16.195L31.266 16.25L30.953 16.313L30.641 16.383L30.328 16.461L30.016 16.563L29.703 16.688L29.391 16.804L29.078 16.914L28.766 17.047L28.453 17.203L28.141 17.359L27.828 17.515L27.516 17.695L27.203 17.899L26.891 18.109L26.578 18.328L26.266 18.57L25.953 18.836L25.648 19.109L25.352 19.391L25.063 19.688L24.781 20L24.523 20.313L24.289 20.625L24.062 20.938L23.844 21.25L23.641 21.563L23.453 21.875L23.281 22.188L23.125 22.5L22.969 22.813L22.813 23.125L22.68 23.438L22.57 23.75L22.539 24.016L22.586 24.234L22.766 24.266L23.078 24.109L23.391 23.984L23.703 23.891L24.016 23.797L24.328 23.703L24.641 23.633L24.953 23.586L25.266 23.562H25.578L25.891 23.579L26.203 23.609L26.516 23.664L26.828 23.742L27.141 23.836L27.453 23.945L27.766 24.062L28.078 24.187L28.391 24.352L28.703 24.555L29.016 24.789L29.328 25.054L29.617 25.344L29.883 25.656L30.117 25.969L30.32 26.281L30.493 26.594L30.633 26.906L30.75 27.219L30.844 27.531L30.922 27.844L30.984 28.156L31.039 28.469L31.086 28.781L31.102 29.094L31.085 29.406L31.055 29.719L31.008 30.031L30.953 30.344L30.89 30.656L30.82 30.969L30.742 31.281L30.649 31.594L30.539 31.906L30.414 32.219L30.273 32.531L30.117 32.844L29.945 33.156L29.773 33.469L29.602 33.781L29.422 34.094L29.234 34.406L29.032 34.719L28.812 35.031L28.594 35.344L28.375 35.656L28.148 35.969L27.914 36.281L27.68 36.594L27.445 36.906L27.211 37.219L26.977 37.531L26.758 37.844L26.555 38.156L26.328 38.469L26.078 38.781L25.836 39.094L25.602 39.406L25.375 39.719L25.156 40.031L24.945 40.344L24.742 40.656L24.547 40.969L24.359 41.281L24.172 41.594L23.984 41.906L23.797 42.219L23.609 42.531L23.438 42.844L23.281 43.156L23.125 43.469L22.969 43.781L22.82 44.094L22.68 44.406L22.547 44.719L22.422 45.031L22.297 45.344L22.172 45.656L22.055 45.969L21.945 46.281L21.844 46.594L21.75 46.906L21.664 47.219L21.586 47.531L21.508 47.844L21.429 48.156L21.359 48.469L21.297 48.781L21.242 49.094L21.196 49.406L21.156 49.719L21.125 50.031L21.086 50.344L21.039 50.656L21.008 50.969L20.992 51.281L20.984 51.594V51.906L20.992 52.219L21.008 52.531L21.032 52.844L21.062 53.156L21.094 53.469L21.125 53.781L21.164 54.094L21.211 54.406L21.266 54.719L21.328 55.031L21.398 55.344L21.477 55.656L21.555 55.969L21.633 56.281L21.727 56.594L21.835 56.906L21.945 57.219L22.055 57.531L22.18 57.844L22.321 58.156L22.461 58.469L22.602 58.781L22.75 59.094L22.906 59.406L23.078 59.719L23.266 60.031L23.453 60.344L23.641 60.656L23.852 60.969L24.086 61.281L24.32 61.594L24.555 61.906L24.805 62.219L25.07 62.531L25.352 62.844L25.648 63.156L25.953 63.461L26.266 63.758L26.578 64.039L26.891 64.305L27.203 64.562L27.516 64.812L27.828 65.046L28.141 65.266L28.453 65.484L28.766 65.703L29.078 65.906L29.391 66.094L29.703 66.274L30.016 66.445L30.328 66.609L30.641 66.766L30.953 66.906L31.266 67.031L31.578 67.156L31.891 67.281L32.203 67.391L32.516 67.484L32.828 67.578L33.141 67.672L33.453 67.758L33.766 67.836L34.078 67.906L34.391 67.969L34.703 68.031L35.016 68.094L35.328 68.156L35.641 68.219L35.953 68.266L36.266 68.297L36.578 68.329L36.891 68.359L37.203 68.391L37.516 68.422L37.828 68.445L38.141 68.461L38.453 68.476L38.766 68.492H39.078L39.391 68.477L39.703 68.469H40.016L40.328 68.453L40.641 68.422L40.953 68.399L41.266 68.383L41.578 68.359L41.891 68.329L42.203 68.289L42.516 68.243L42.828 68.203L43.141 68.172L43.453 68.133L43.766 68.086L44.078 68.039L44.391 67.992L44.703 67.938L45.016 67.875L45.328 67.805L45.641 67.726L45.953 67.656L46.266 67.594L46.578 67.524L46.891 67.445L47.203 67.375L47.516 67.313L47.828 67.258L48.141 67.211L48.453 67.156L48.766 67.094L49.078 67.031L49.391 66.969L49.703 66.906L50.016 66.844L50.328 66.781L50.641 66.719L50.953 66.656L51.266 66.594L51.578 66.524L51.891 66.445L52.203 66.375L52.516 66.313L52.828 66.25L53.141 66.188L53.453 66.133L53.766 66.086L54.078 66.031L54.391 65.969L54.703 65.906L55.016 65.844L55.328 65.781L55.641 65.719L55.719 65.57L55.562 65.336L55.328 65.156L55.016 65.031L54.703 64.945L54.391 64.899H54.078L53.766 64.945L53.453 64.992L53.141 65.039L52.828 65.094L52.516 65.156L52.203 65.219L51.891 65.281L51.578 65.344L51.266 65.406L50.953 65.469L50.641 65.531L50.328 65.594L50.016 65.656L49.703 65.695L49.391 65.711L49.078 65.625L48.765 65.438L48.555 65.188L48.445 64.875L48.453 64.563L48.578 64.25L48.766 63.938L49.016 63.625L49.266 63.313L49.516 63L49.758 62.688L49.992 62.375L50.187 62.063L50.344 61.75L50.484 61.438L50.609 61.125L50.719 60.813L50.812 60.5L50.898 60.188L50.977 59.875L51.039 59.563L51.086 59.25L51.117 58.938L51.133 58.625L51.141 58.313V58L51.125 57.688L51.094 57.375L51.047 57.063L50.984 56.75L50.906 56.438L50.812 56.125L50.719 55.813L50.625 55.5L50.5 55.188L50.344 54.875L50.164 54.563L49.961 54.25L49.734 53.938L49.484 53.625L49.211 53.32L48.914 53.024L48.609 52.742L48.297 52.477L47.984 52.25L47.672 52.063L47.359 51.883L47.047 51.711L46.734 51.578L46.422 51.484L46.109 51.391L45.797 51.297L45.484 51.234L45.172 51.204L44.859 51.164L44.547 51.117L44.234 51.094H43.922L43.609 51.11L43.297 51.14L42.984 51.18L42.672 51.227L42.359 51.281L42.047 51.344L41.734 51.429L40.797 51.828L40.484 51.984L40.172 52.141L39.859 52.328L39.547 52.547L39.234 52.797L38.922 53.078L38.625 53.375L38.344 53.688L38.086 54L37.851 54.313L37.641 54.625L37.453 54.938L37.289 55.25L37.148 55.563L37.024 55.875L36.914 56.188L36.812 56.5L36.718 56.813L36.648 57.125L36.602 57.438L36.555 57.75L36.508 58.063L36.469 58.375L36.437 58.688L36.414 59L36.398 59.313L36.383 59.625L36.367 59.938L36.359 60.25V60.563L36.367 60.875L36.383 61.188L36.398 61.5L36.414 61.813L36.438 62.125L36.468 62.438L36.508 62.75L36.555 63.063L36.602 63.375L36.648 63.688L36.695 64L36.742 64.313L36.805 64.625L36.883 64.938L36.969 65.25L37.063 65.563L37.141 65.875L37.203 66.188L37.187 66.5L37.094 66.813L36.898 67.063L36.602 67.25L36.297 67.328L35.984 67.297L35.672 67.18L35.359 66.976L35.047 66.726L34.734 66.43L34.438 66.125L34.156 65.813L33.883 65.5L33.617 65.188L33.359 64.875L33.109 64.563L32.875 64.25L32.656 63.938L32.453 63.625L32.266 63.313L32.086 63L31.914 62.688L31.75 62.375L31.594 62.063L31.445 61.75L31.305 61.438L31.172 61.125L31.047 60.813L30.93 60.5L30.82 60.188L30.727 59.875L30.648 59.563L30.563 59.25L30.468 58.938L30.398 58.625L30.352 58.313L30.305 58L30.258 57.688L30.211 57.375L30.164 57.063L30.133 56.75L30.117 56.438L30.094 56.125L30.062 55.813L30.039 55.5L30.023 55.188V54.875L30.039 54.563L30.062 54.25L30.094 53.938L30.117 53.625L30.133 53.313L30.164 53L30.211 52.688L30.266 52.375L30.328 52.063L30.383 51.75L30.43 51.438L30.492 51.125L30.57 50.813L30.648 50.5L30.727 50.188L30.828 49.875L30.953 49.563L31.07 49.25L31.18 48.938L31.305 48.625L31.446 48.313L31.586 48L31.727 47.688L31.883 47.375L32.055 47.063L32.227 46.75L32.398 46.438L32.593 46.125L32.813 45.813L33.031 45.5L33.25 45.188L33.484 44.875L33.734 44.563L34.008 44.25L34.305 43.937L34.602 43.633L34.898 43.336L35.195 43.046L35.492 42.766L35.797 42.5L36.109 42.25L36.422 42.016L36.734 41.796L37.047 41.586L37.359 41.383L37.672 41.188L37.984 41L38.297 40.82L38.609 40.648L38.922 40.484L39.234 40.328L39.547 40.187L39.859 40.063L40.172 39.946L40.484 39.836L40.797 39.727L41.109 39.617L41.422 39.516L41.734 39.422L42.047 39.344L42.359 39.281L42.672 39.211L42.984 39.133L43.281 39.016L43.563 38.859L43.797 38.625L43.984 38.313L44.148 38L44.29 37.688L44.43 37.375L44.571 37.063L44.711 36.75L44.852 36.438L44.984 36.125L45.109 35.813L45.234 35.5L45.359 35.188L45.477 34.875L45.585 34.563L45.695 34.25L45.805 33.938L45.898 33.625L45.977 33.313L46.055 33L46.133 32.688L46.203 32.375L46.266 32.063L46.32 31.75L46.367 31.438L46.414 31.125L46.461 30.813L46.492 30.5L46.508 30.188L46.523 29.875L46.539 29.563L46.547 29.25V28.938L46.539 28.625L46.523 28.313L46.516 28V27.689L46.492 27.376L46.445 27.064L46.398 26.751L46.352 26.439L46.305 26.126L46.257 25.814L46.187 25.501L46.094 25.189L46 24.876L45.906 24.564L45.805 24.251L45.695 23.939L45.578 23.626L45.453 23.314L45.32 23.001L45.18 22.689L45.023 22.376L44.852 22.064L44.672 21.751L44.484 21.439L44.273 21.126L44.039 20.814L43.789 20.501L43.523 20.189L43.242 19.876L42.945 19.564L42.641 19.274L42.328 19.009L42.016 18.759L41.703 18.524L41.391 18.298L41.078 18.079L40.766 17.876L40.453 17.689L40.141 17.517L39.828 17.36L39.516 17.22L39.203 17.095L38.891 16.97L38.578 16.845L38.266 16.735L37.953 16.642L37.641 16.556L37.328 16.478L37.016 16.399L36.703 16.321L36.391 16.259L36.078 16.212L35.766 16.165L35.453 16.119L35.141 16.079L34.828 16.047L34.516 16.017L34.203 15.985Z" fill="#421F1F"/>
</g>
<path d="M84.7069 41.6179C84.5169 44.9659 84.6539 48.1109 81.8469 52.1719C78.3229 56.6289 74.3649 57.9369 72.0989 57.6119C71.1759 55.3489 71.6039 51.3419 75.1429 46.8589C78.4489 42.6729 82.0769 42.2519 84.7069 41.6179ZM64.7949 73.9939C67.8869 74.0049 70.7649 73.7059 74.2749 76.1469C78.0879 79.2459 78.9879 82.9169 78.5049 85.0819C76.3549 86.0889 72.7149 85.8919 68.8739 82.7799C65.2849 79.8729 65.1909 76.4749 64.7949 73.9939Z" fill="#D0F5D3" stroke="#421F1F"/>
</g>
<defs>
<clipPath id="clip0_167_79">
<rect width="100" height="100" fill="white"/>
</clipPath>
<clipPath id="clip1_167_79">
<rect width="62" height="71" fill="white" transform="translate(19 14)"/>
</clipPath>
</defs>
</svg>
